<svg width="252" height="252" viewBox="0 0 252 252" fill="none" xmlns="http://www.w3.org/2000/svg">
<g id="two-factor-authentication/pana">
<g id="Floor">
<path id="Vector" d="M252 250.072C252 250.153 195.583 250.221 126.006 250.221C56.4284 250.221 0 250.153 0 250.072C0 249.992 56.4048 249.923 126.006 249.923C195.607 249.923 252 249.981 252 250.072Z" fill="#263238"/>
</g>
<g id="window-2">
<path id="Vector_2" d="M213.577 121.888H125.865C123.791 121.888 122.109 123.527 122.109 125.548V169.802C122.109 171.823 123.791 173.462 125.865 173.462H213.577C215.651 173.462 217.332 171.823 217.332 169.802V125.548C217.332 123.527 215.651 121.888 213.577 121.888Z" fill="white"/>
<path id="Vector_3" d="M213.583 173.462C213.583 173.462 213.836 173.462 214.319 173.376C215.034 173.225 215.69 172.877 216.208 172.372C216.586 172.001 216.877 171.555 217.062 171.064C217.167 170.781 217.239 170.486 217.274 170.187C217.274 169.877 217.274 169.544 217.274 169.2C217.274 167.823 217.274 166.234 217.274 164.45C217.274 157.296 217.244 146.958 217.227 134.183C217.227 132.582 217.227 130.947 217.227 129.278V126.742C217.227 125.887 217.315 125.021 216.956 124.229C216.708 123.63 216.297 123.108 215.767 122.719C215.237 122.331 214.608 122.091 213.948 122.026C213.513 121.998 213.03 122.026 212.571 122.026H206.891H182.276H125.877C125.276 122.025 124.685 122.171 124.156 122.449C123.628 122.728 123.179 123.131 122.852 123.621C122.518 124.107 122.315 124.668 122.263 125.25C122.234 125.824 122.263 126.455 122.263 127.052V148.266C122.263 152.856 122.263 157.369 122.263 161.805V168.368C122.263 168.907 122.263 169.452 122.263 169.98C122.29 170.497 122.43 171.001 122.675 171.46C122.926 171.911 123.273 172.303 123.694 172.611C124.114 172.919 124.598 173.135 125.112 173.244C125.635 173.326 126.166 173.353 126.695 173.325H149.691H171.14L202.194 173.371L210.634 173.399L202.194 173.428L171.14 173.474H149.691H126.695C126.146 173.502 125.596 173.473 125.053 173.388C124.498 173.271 123.976 173.038 123.523 172.706C123.069 172.373 122.696 171.948 122.428 171.46C122.157 170.968 122.003 170.423 121.975 169.865C121.975 169.292 121.975 168.787 121.975 168.242C121.975 166.079 121.975 163.888 121.975 161.679V148.266C121.975 143.677 121.975 139.001 121.975 134.24V127.069C121.975 126.461 121.975 125.876 121.975 125.245C122.018 124.617 122.221 124.01 122.563 123.478C122.921 122.948 123.406 122.511 123.976 122.204C124.552 121.905 125.194 121.746 125.848 121.739H182.246H206.861H212.541C213.012 121.739 213.46 121.739 213.942 121.739C214.414 121.788 214.873 121.92 215.296 122.13C216.136 122.545 216.794 123.241 217.15 124.092C217.322 124.508 217.414 124.951 217.421 125.4C217.421 125.83 217.421 126.26 217.421 126.69V129.226C217.421 130.893 217.421 132.528 217.421 134.131C217.421 146.907 217.38 157.245 217.368 164.398C217.368 166.182 217.368 167.772 217.368 169.148C217.368 169.493 217.368 169.82 217.368 170.141C217.33 170.447 217.255 170.747 217.144 171.036C216.954 171.534 216.655 171.987 216.267 172.361C215.737 172.869 215.066 173.214 214.337 173.353C214.154 173.387 213.969 173.406 213.783 173.411L213.583 173.462Z" fill="#263238"/>
<path id="Vector_4" d="M155.29 140.115V140.758H152.535V137.316H155.219V137.958H153.353V138.687H155.001V139.312H153.353V140.115H155.29Z" fill="#263238"/>
<path id="Vector_5" d="M159.208 137.292V140.734H158.531L156.765 138.629V140.734H155.953V137.292H156.606L158.372 139.397V137.292H159.208Z" fill="#263238"/>
<path id="Vector_6" d="M160.792 137.946H159.65V137.292H162.752V137.946H161.61V140.757H160.792V137.946Z" fill="#263238"/>
<path id="Vector_7" d="M165.948 140.115V140.758H163.193V137.316H165.883V137.958H164.011V138.687H165.665V139.312H164.011V140.115H165.948Z" fill="#263238"/>
<path id="Vector_8" d="M168.873 140.758L168.185 139.794H167.431V140.758H166.613V137.316H168.155C169.103 137.316 169.698 137.792 169.698 138.572C169.705 138.805 169.639 139.035 169.508 139.231C169.378 139.427 169.189 139.579 168.968 139.668L169.762 140.781L168.873 140.758ZM168.102 137.947H167.431V139.151H168.102C168.603 139.151 168.856 138.928 168.856 138.549C168.856 138.17 168.603 137.947 168.102 137.947Z" fill="#263238"/>
<path id="Vector_9" d="M171.559 139.024C171.582 138.651 171.717 138.292 171.948 137.992C172.178 137.693 172.494 137.466 172.856 137.34C173.218 137.214 173.61 137.194 173.983 137.284C174.356 137.373 174.694 137.567 174.955 137.843L174.425 138.319C174.315 138.192 174.178 138.09 174.024 138.019C173.869 137.949 173.701 137.912 173.53 137.911C173.242 137.932 172.973 138.057 172.776 138.263C172.58 138.469 172.47 138.74 172.47 139.021C172.47 139.303 172.58 139.574 172.776 139.78C172.973 139.986 173.242 140.111 173.53 140.132C173.701 140.134 173.871 140.099 174.026 140.028C174.181 139.958 174.317 139.854 174.425 139.724L174.955 140.2C174.696 140.478 174.358 140.675 173.985 140.766C173.611 140.857 173.218 140.839 172.855 140.713C172.493 140.587 172.176 140.36 171.945 140.06C171.715 139.759 171.58 139.399 171.559 139.024Z" fill="#263238"/>
<path id="Vector_10" d="M175.214 139.024C175.193 138.645 175.289 138.268 175.49 137.942C175.691 137.617 175.988 137.357 176.342 137.198C176.695 137.038 177.09 136.986 177.475 137.048C177.86 137.109 178.217 137.282 178.5 137.544C178.783 137.805 178.979 138.143 179.062 138.515C179.146 138.886 179.113 139.273 178.968 139.626C178.824 139.979 178.573 140.281 178.25 140.494C177.927 140.707 177.546 140.821 177.156 140.82C176.906 140.834 176.655 140.798 176.419 140.714C176.184 140.63 175.968 140.5 175.786 140.332C175.604 140.164 175.46 139.961 175.361 139.736C175.263 139.511 175.213 139.269 175.214 139.024ZM178.269 139.024C178.264 138.811 178.195 138.604 178.07 138.428C177.945 138.253 177.769 138.118 177.566 138.039C177.362 137.961 177.139 137.942 176.925 137.987C176.711 138.031 176.515 138.136 176.362 138.289C176.208 138.441 176.105 138.635 176.064 138.844C176.023 139.054 176.046 139.271 176.131 139.468C176.216 139.664 176.358 139.832 176.541 139.95C176.723 140.069 176.937 140.132 177.156 140.132C177.305 140.135 177.453 140.108 177.591 140.054C177.729 139.999 177.854 139.917 177.959 139.813C178.063 139.709 178.144 139.586 178.198 139.45C178.251 139.315 178.275 139.17 178.269 139.024Z" fill="#263238"/>
<path id="Vector_11" d="M179.727 137.292H181.328C181.796 137.292 182.245 137.473 182.576 137.796C182.907 138.119 183.093 138.557 183.093 139.013C183.093 139.47 182.907 139.907 182.576 140.23C182.245 140.553 181.796 140.734 181.328 140.734H179.715L179.727 137.292ZM181.298 140.097C181.59 140.097 181.87 139.984 182.076 139.783C182.283 139.582 182.399 139.309 182.399 139.025C182.399 138.74 182.283 138.467 182.076 138.266C181.87 138.065 181.59 137.952 181.298 137.952H180.551V140.097H181.298Z" fill="#263238"/>
<path id="Vector_12" d="M186.678 140.115V140.758H183.924V137.316H186.625V137.958H184.742V138.687H186.396V139.312H184.742V140.115H186.678Z" fill="#263238"/>
<path id="Vector_13" d="M141.788 146.293H133.141C131.857 146.293 130.816 147.307 130.816 148.559V161.679C130.816 162.93 131.857 163.945 133.141 163.945H141.788C143.072 163.945 144.113 162.93 144.113 161.679V148.559C144.113 147.307 143.072 146.293 141.788 146.293Z" fill="#EBEBEB"/>
<path id="Vector_14" d="M158.391 146.293H149.745C148.461 146.293 147.42 147.307 147.42 148.559V161.679C147.42 162.93 148.461 163.945 149.745 163.945H158.391C159.675 163.945 160.716 162.93 160.716 161.679V148.559C160.716 147.307 159.675 146.293 158.391 146.293Z" fill="#EBEBEB"/>
<path id="Vector_15" d="M174.995 146.293H166.348C165.064 146.293 164.023 147.307 164.023 148.559V161.679C164.023 162.93 165.064 163.945 166.348 163.945H174.995C176.279 163.945 177.32 162.93 177.32 161.679V148.559C177.32 147.307 176.279 146.293 174.995 146.293Z" fill="#EBEBEB"/>
<path id="Vector_16" d="M191.592 146.293H182.946C181.662 146.293 180.621 147.307 180.621 148.559V161.679C180.621 162.93 181.662 163.945 182.946 163.945H191.592C192.876 163.945 193.917 162.93 193.917 161.679V148.559C193.917 147.307 192.876 146.293 191.592 146.293Z" fill="#EBEBEB"/>
<path id="Vector_17" d="M208.198 146.293H199.551C198.267 146.293 197.227 147.307 197.227 148.559V161.679C197.227 162.93 198.267 163.945 199.551 163.945H208.198C209.482 163.945 210.523 162.93 210.523 161.679V148.559C210.523 147.307 209.482 146.293 208.198 146.293Z" fill="#EBEBEB"/>
<path id="Vector_18" d="M140.361 156.469C140.361 157.726 139.361 158.546 138.007 158.546C136.147 158.546 135.164 157.244 135.164 155.104C135.164 152.775 136.441 151.57 138.307 151.57C138.866 151.546 139.421 151.669 139.914 151.926L139.702 152.327C139.276 152.099 138.793 151.99 138.307 152.012C136.724 152.012 135.682 153.027 135.682 155.03C135.682 155.306 135.702 155.582 135.741 155.856C135.906 155.412 136.216 155.033 136.623 154.778C137.031 154.522 137.512 154.403 137.995 154.439C139.408 154.439 140.361 155.242 140.361 156.469ZM139.843 156.469C139.843 155.488 139.119 154.846 137.925 154.846C137.683 154.82 137.439 154.842 137.207 154.912C136.975 154.982 136.76 155.098 136.576 155.253C136.392 155.407 136.243 155.597 136.138 155.81C136.033 156.024 135.974 156.256 135.965 156.492C135.965 157.301 136.659 158.104 137.983 158.104C138.219 158.13 138.456 158.106 138.682 158.035C138.907 157.964 139.114 157.848 139.289 157.693C139.465 157.539 139.605 157.35 139.701 157.139C139.796 156.928 139.845 156.7 139.843 156.469Z" fill="#6744F3"/>
<path id="Vector_19" d="M156.783 156.602H155.3V158.513H154.794V156.602H150.762V156.241L154.599 151.623H155.188L151.421 156.161H154.817V154.48H155.312V156.161H156.795L156.783 156.602Z" fill="#6744F3"/>
<path id="Vector_20" d="M173.907 159.493C171.858 159.692 169.793 159.692 167.744 159.493C169.793 159.295 171.858 159.295 173.907 159.493Z" fill="#6744F3"/>
<path id="Vector_21" d="M128.155 128.446C128.951 128.446 129.597 127.817 129.597 127.041C129.597 126.264 128.951 125.635 128.155 125.635C127.359 125.635 126.713 126.264 126.713 127.041C126.713 127.817 127.359 128.446 128.155 128.446Z" fill="#263238"/>
<path id="Vector_22" d="M133.751 127.041C133.751 127.319 133.667 127.59 133.508 127.821C133.35 128.053 133.125 128.233 132.861 128.339C132.598 128.446 132.308 128.473 132.028 128.419C131.748 128.365 131.491 128.231 131.29 128.034C131.088 127.838 130.951 127.587 130.895 127.315C130.839 127.042 130.868 126.76 130.977 126.503C131.086 126.246 131.271 126.026 131.508 125.872C131.745 125.718 132.024 125.635 132.309 125.635C132.692 125.635 133.058 125.783 133.329 126.047C133.599 126.31 133.751 126.668 133.751 127.041Z" fill="#263238"/>
<path id="Vector_23" d="M136.389 128.446C137.186 128.446 137.831 127.817 137.831 127.041C137.831 126.264 137.186 125.635 136.389 125.635C135.593 125.635 134.947 126.264 134.947 127.041C134.947 127.817 135.593 128.446 136.389 128.446Z" fill="#263238"/>
<path id="Vector_24" d="M217.48 130.999C217.48 131.079 196.156 131.148 169.863 131.148C143.571 131.148 122.246 131.079 122.246 130.999C122.246 130.919 143.559 130.85 169.863 130.85C196.167 130.85 217.48 130.913 217.48 130.999Z" fill="#263238"/>
</g>
<g id="window-1">
<path id="Vector_25" d="M199.992 8.62869H94.8455C92.7131 8.62869 90.9844 10.3136 90.9844 12.392V106.676C90.9844 108.755 92.7131 110.44 94.8455 110.44H199.992C202.124 110.44 203.853 108.755 203.853 106.676V12.392C203.853 10.3136 202.124 8.62869 199.992 8.62869Z" fill="white"/>
<path id="Vector_26" d="M199.992 110.439H200.268C200.542 110.417 200.812 110.367 201.075 110.29C201.588 110.137 202.063 109.88 202.468 109.538C202.874 109.195 203.201 108.773 203.429 108.299C203.746 107.588 203.872 106.81 203.794 106.039C203.794 105.184 203.794 104.243 203.794 103.228C203.794 101.197 203.794 98.8508 203.794 96.2118C203.794 85.6561 203.765 70.3962 203.741 51.5107C203.741 42.0737 203.741 31.7417 203.741 20.641C203.741 17.872 203.741 15.0553 203.741 12.1907C203.697 11.4903 203.445 10.8175 203.017 10.2534C202.589 9.68941 202.002 9.2584 201.328 9.01252C200.627 8.7964 199.888 8.7184 199.156 8.78305H178.149H94.8573C93.9734 8.78805 93.1201 9.09915 92.4499 9.66078C91.7575 10.2306 91.3049 11.0292 91.1785 11.9039C91.138 12.3425 91.1242 12.7831 91.1374 13.2233V48.5448C91.1374 62.1238 91.1374 75.2209 91.1374 87.6984C91.1374 93.94 91.1374 100.019 91.1374 105.936C91.1374 106.303 91.1374 106.681 91.1374 107.031C91.1713 107.384 91.2565 107.729 91.3904 108.058C91.6628 108.717 92.1273 109.284 92.7265 109.688C93.3197 110.091 94.0222 110.315 94.7454 110.33H105.64H137.312L183.176 110.382H195.642L183.176 110.41L137.312 110.456H105.64H94.7395C93.9619 110.437 93.2071 110.197 92.568 109.765C91.929 109.332 91.4337 108.727 91.1432 108.024C90.9988 107.671 90.9057 107.3 90.8666 106.922C90.8372 106.532 90.8666 106.177 90.8666 105.804C90.8666 99.8872 90.8666 93.8081 90.8666 87.5665C90.8666 75.0889 90.8666 61.9918 90.8666 48.4128C90.8666 41.6205 90.8666 34.7153 90.8666 27.6973V13.1946C90.8504 12.7409 90.8662 12.2867 90.9137 11.835C91.0431 10.902 91.5209 10.0482 92.2557 9.43705C92.9771 8.82215 93.899 8.47657 94.8573 8.46179H178.149H199.121C199.886 8.39746 200.656 8.48329 201.387 8.71421C202.108 8.97754 202.736 9.43891 203.195 10.0426C203.653 10.6463 203.923 11.3665 203.971 12.1161C203.971 14.9845 203.971 17.807 203.971 20.5836C203.971 31.6843 203.971 42.0163 203.971 51.4533C203.971 70.3274 203.935 85.5988 203.923 96.1545C203.923 98.7934 203.923 101.14 203.923 103.171C203.923 104.186 203.923 105.127 203.923 105.982C203.998 106.766 203.864 107.557 203.535 108.276C203.24 108.879 202.784 109.395 202.216 109.769C201.648 110.143 200.988 110.363 200.304 110.405L199.992 110.439Z" fill="#263238"/>
<path id="Vector_27" d="M99.5137 15.6846C99.5137 16.0615 99.399 16.43 99.184 16.7433C98.969 17.0566 98.6635 17.3008 98.306 17.4447C97.9486 17.5887 97.5554 17.6261 97.1762 17.5522C96.797 17.4782 96.4488 17.2962 96.1757 17.0293C95.9027 16.7623 95.717 16.4224 95.6423 16.0526C95.5676 15.6828 95.6071 15.2996 95.7559 14.9517C95.9047 14.6038 96.1561 14.3067 96.4782 14.0981C96.8004 13.8895 97.1787 13.7788 97.5655 13.7799C97.8218 13.7799 98.0757 13.8292 98.3124 13.925C98.5492 14.0208 98.7642 14.1612 98.9452 14.3381C99.1262 14.5151 99.2696 14.7251 99.3671 14.9561C99.4647 15.1872 99.5145 15.4347 99.5137 15.6846Z" fill="#263238"/>
<path id="Vector_28" d="M103.251 17.5826C104.327 17.5826 105.199 16.7324 105.199 15.6837C105.199 14.635 104.327 13.7848 103.251 13.7848C102.175 13.7848 101.303 14.635 101.303 15.6837C101.303 16.7324 102.175 17.5826 103.251 17.5826Z" fill="#263238"/>
<path id="Vector_29" d="M108.948 17.5826C110.024 17.5826 110.896 16.7324 110.896 15.6837C110.896 14.635 110.024 13.7848 108.948 13.7848C107.872 13.7848 107 14.635 107 15.6837C107 16.7324 107.872 17.5826 108.948 17.5826Z" fill="#263238"/>
<path id="Vector_30" d="M203.853 21.0827C203.853 21.1687 178.585 21.2317 147.419 21.2317C116.253 21.2317 90.9844 21.1687 90.9844 21.0827C90.9844 20.9967 116.247 20.9336 147.419 20.9336C178.59 20.9336 203.853 20.9967 203.853 21.0827Z" fill="#263238"/>
<path id="Vector_31" d="M163.363 59.4336C163.363 59.4336 163.404 59.3705 163.499 59.2557L163.575 59.1582L163.652 59.0263C163.717 58.9195 163.774 58.8083 163.822 58.6935C163.822 58.6304 163.881 58.5616 163.905 58.487L163.975 58.2461C164.001 58.1576 164.021 58.0675 164.034 57.9764C164.034 57.8789 164.07 57.7814 164.075 57.6781C164.114 57.201 164.09 56.721 164.005 56.2497C163.757 54.9595 163.304 53.715 162.663 52.5609C161.836 51.0205 160.869 49.5556 159.773 48.1837C158.454 46.5152 157.016 44.9394 155.47 43.4681C153.7 41.7745 151.81 40.2045 149.814 38.7696C148.76 38.0124 147.648 37.2781 146.476 36.5896C145.282 35.8786 144.042 35.2443 142.762 34.6908C141.448 34.1059 140.064 33.6819 138.642 33.4287C137.916 33.3025 137.173 33.2851 136.441 33.377C136.073 33.4279 135.715 33.5283 135.376 33.6754C135.043 33.8346 134.742 34.0502 134.487 34.3121C134.243 34.5869 134.056 34.9042 133.934 35.2472C133.823 35.5931 133.762 35.9521 133.751 36.3143C133.741 37.0344 133.843 37.7518 134.051 38.4426C134.473 39.7941 135.067 41.0891 135.817 42.2978C136.525 43.4735 137.311 44.6023 138.171 45.6767C139.007 46.7323 139.884 47.7305 140.773 48.6656C142.464 50.4355 144.281 52.0861 146.212 53.605C147.887 54.9362 149.657 56.1498 151.509 57.2364C153.032 58.1393 154.636 58.9073 156.3 59.5311C157.551 60.0176 158.871 60.3155 160.214 60.4146C160.703 60.4381 161.193 60.4053 161.674 60.317C161.78 60.317 161.874 60.2654 161.968 60.2425C162.06 60.2189 162.151 60.1902 162.239 60.1564L162.474 60.0589L162.68 59.9556C162.793 59.8962 162.899 59.8271 162.998 59.7491L163.122 59.663L163.216 59.577C163.322 59.4737 163.381 59.4278 163.381 59.4278L163.222 59.5827L163.128 59.6688L163.01 59.7606C162.91 59.8398 162.801 59.909 162.686 59.9671L162.492 60.0933L162.251 60.1908C162.165 60.2263 162.076 60.2551 161.986 60.2769C161.888 60.3097 161.787 60.3365 161.686 60.3572C161.202 60.4538 160.707 60.4885 160.214 60.4605C158.868 60.3713 157.543 60.079 156.288 59.5942C154.618 58.971 153.009 58.203 151.48 57.2995C149.628 56.2127 147.858 54.9991 146.182 53.6681C144.246 52.1511 142.425 50.5004 140.732 48.7287C139.843 47.7936 138.966 46.7954 138.124 45.7398C137.266 44.6599 136.48 43.5274 135.77 42.3494C135.018 41.1352 134.425 39.8344 134.004 38.4771C133.79 37.7775 133.687 37.05 133.698 36.32C133.711 35.952 133.774 35.5873 133.886 35.2358C134.02 34.8802 134.22 34.5516 134.475 34.2662C134.736 33.9936 135.048 33.7717 135.393 33.6122C135.74 33.4614 136.107 33.3572 136.482 33.3025C137.224 33.2104 137.976 33.2279 138.713 33.3541C140.145 33.6095 141.539 34.0373 142.863 34.6277C144.144 35.1819 145.387 35.8181 146.582 36.5323C147.76 37.2207 148.872 37.955 149.926 38.718C151.925 40.1554 153.815 41.7314 155.582 43.4336C157.132 44.9075 158.571 46.4872 159.89 48.1608C160.983 49.5365 161.946 51.0053 162.769 52.5494C163.409 53.7097 163.859 54.96 164.105 56.2554C164.187 56.731 164.207 57.2149 164.164 57.6953C164.155 57.7938 164.139 57.8915 164.117 57.9879C164.107 58.0796 164.088 58.1701 164.058 58.2575L163.987 58.5042C163.962 58.5748 163.933 58.6438 163.899 58.7107C163.855 58.8284 163.795 58.9402 163.722 59.0435C163.702 59.0899 163.676 59.1342 163.646 59.1754L163.569 59.2729L163.363 59.4336Z" fill="#6744F3"/>
<path id="Vector_32" d="M168.702 46.8575V46.6395V46.5191C168.702 46.4732 168.702 46.4273 168.673 46.3699C168.652 46.2464 168.619 46.1253 168.573 46.0085C168.573 45.9454 168.526 45.8708 168.496 45.802L168.378 45.5725C168.34 45.4893 168.293 45.4104 168.237 45.3373C168.186 45.2512 168.129 45.1687 168.066 45.0906C167.773 44.7071 167.429 44.3637 167.042 44.0694C165.972 43.2683 164.78 42.6336 163.511 42.1878C161.843 41.5731 160.121 41.1065 158.366 40.7937C156.231 40.403 154.069 40.1614 151.898 40.0709C149.419 39.9532 146.935 40.0049 144.464 40.2258C143.163 40.3463 141.833 40.5241 140.485 40.7708C139.108 41.0128 137.749 41.3444 136.418 41.7633C135.034 42.1718 133.709 42.7501 132.474 43.4843C131.845 43.8604 131.279 44.3286 130.797 44.8726C130.558 45.1485 130.36 45.4555 130.208 45.7847C130.063 46.1192 129.983 46.4772 129.973 46.8403C129.984 47.2027 130.062 47.5601 130.202 47.8959C130.356 48.224 130.554 48.5307 130.791 48.808C131.277 49.3524 131.845 49.8223 132.474 50.2021C133.71 50.9329 135.035 51.511 136.418 51.9231C137.751 52.3366 139.109 52.6681 140.485 52.9156C141.833 53.1623 143.163 53.3344 144.464 53.4548C146.935 53.6802 149.419 53.7339 151.898 53.6155C154.07 53.5309 156.233 53.3008 158.372 52.9271C160.127 52.6143 161.848 52.1477 163.517 51.533C164.784 51.0826 165.975 50.4483 167.048 49.6514C167.433 49.3556 167.778 49.0124 168.072 48.6302C168.135 48.5501 168.192 48.4658 168.243 48.3778C168.299 48.3046 168.346 48.2258 168.384 48.1426L168.502 47.9188C168.531 47.8443 168.555 47.7754 168.578 47.7066C168.625 47.59 168.659 47.4688 168.679 47.3452C168.679 47.2935 168.679 47.2476 168.708 47.2017V47.0813V46.8575C168.708 46.8575 168.708 46.9321 168.708 47.0813V47.2017C168.708 47.2476 168.708 47.2935 168.708 47.3509C168.69 47.4743 168.658 47.5954 168.614 47.7123C168.614 47.7812 168.567 47.85 168.537 47.9246L168.425 48.154C168.384 48.2373 168.337 48.3178 168.284 48.395C168.232 48.4802 168.175 48.5626 168.113 48.6417C167.821 49.0289 167.477 49.3762 167.089 49.6743C166.02 50.4821 164.829 51.1228 163.558 51.5732C161.888 52.1948 160.165 52.6671 158.408 52.9844C156.27 53.3765 154.106 53.6219 151.933 53.7187C149.453 53.8412 146.966 53.7914 144.493 53.5696C143.187 53.4491 141.851 53.277 140.503 53.0303C139.123 52.7822 137.761 52.4507 136.424 52.0379C135.035 51.6282 133.704 51.05 132.462 50.3168C131.825 49.9353 131.252 49.4614 130.761 48.9113C130.523 48.627 130.325 48.3124 130.173 47.9762C130.014 47.6337 129.932 47.2621 129.932 46.8862C129.932 46.5103 130.014 46.1387 130.173 45.7962C130.327 45.4611 130.525 45.1468 130.761 44.8611C131.257 44.3117 131.834 43.8379 132.474 43.4556C133.718 42.7235 135.051 42.1453 136.441 41.7346C137.775 41.3164 139.136 40.9848 140.514 40.7421C141.868 40.4954 143.198 40.3233 144.505 40.2028C146.962 39.9699 149.432 39.9067 151.898 40.0135C154.071 40.1093 156.235 40.3566 158.372 40.7536C160.129 41.0679 161.853 41.5384 163.522 42.1591C164.794 42.6095 165.985 43.2501 167.054 44.058C167.44 44.3575 167.784 44.7046 168.078 45.0906C168.141 45.1707 168.198 45.255 168.249 45.343C168.303 45.4195 168.35 45.5001 168.39 45.584L168.502 45.8077C168.531 45.8823 168.555 45.9569 168.578 46.02C168.623 46.1388 168.655 46.2618 168.673 46.3871C168.673 46.4387 168.673 46.4904 168.673 46.5305V46.6567C168.702 46.783 168.702 46.8575 168.702 46.8575Z" fill="#6744F3"/>
<path id="Vector_33" d="M161.627 31.2148L161.433 31.0943L161.327 31.0254C161.283 31.0011 161.238 30.98 161.191 30.9623C161.079 30.9026 160.961 30.8545 160.838 30.8189C160.767 30.8189 160.697 30.7673 160.62 30.7501L160.367 30.6984C160.276 30.679 160.184 30.6656 160.091 30.6583C159.989 30.6524 159.886 30.6524 159.784 30.6583C159.293 30.6522 158.803 30.7062 158.325 30.8189C157.022 31.156 155.78 31.684 154.64 32.3851C153.119 33.292 151.687 34.3328 150.361 35.4944C148.743 36.8916 147.229 38.3984 145.829 40.0035C144.216 41.8398 142.738 43.7856 141.409 45.8264C140.714 46.8992 140.031 48.0465 139.407 49.1939C138.76 50.4031 138.196 51.6526 137.718 52.9343C137.212 54.2563 136.874 55.6339 136.712 57.0361C136.633 57.7521 136.667 58.4756 136.812 59.1816C136.892 59.5352 137.021 59.8766 137.194 60.1971C137.376 60.5135 137.618 60.7937 137.906 61.0232C138.206 61.2357 138.543 61.3932 138.901 61.4878C139.261 61.5729 139.632 61.6095 140.002 61.5968C140.741 61.5567 141.469 61.4078 142.162 61.1551C143.516 60.6544 144.801 59.9915 145.988 59.1816C147.142 58.4111 148.243 57.5679 149.284 56.6575C150.308 55.7682 151.268 54.8504 152.162 53.921C153.855 52.1544 155.419 50.2738 156.841 48.2932C158.089 46.573 159.21 44.769 160.196 42.8949C161.019 41.3533 161.697 39.7424 162.221 38.0817C162.633 36.8299 162.845 35.5239 162.851 34.2094C162.849 33.7323 162.782 33.2577 162.651 32.7981C162.651 32.6949 162.586 32.6031 162.557 32.5113C162.527 32.4195 162.492 32.3392 162.451 32.2589L162.339 32.0351C162.298 31.9663 162.251 31.9032 162.215 31.8458C162.149 31.7381 162.07 31.6381 161.98 31.5475L161.886 31.4328L161.792 31.3524L161.627 31.2033L161.797 31.3467L161.892 31.427C161.928 31.4607 161.961 31.4972 161.992 31.536C162.08 31.6274 162.159 31.7273 162.227 31.8343C162.268 31.8974 162.315 31.9548 162.357 32.0236L162.468 32.2531C162.514 32.3336 162.551 32.4181 162.58 32.5055C162.61 32.5973 162.651 32.6891 162.674 32.7924C162.81 33.2532 162.882 33.7299 162.886 34.2094C162.889 35.5274 162.68 36.8377 162.268 38.0932C161.746 39.7584 161.072 41.375 160.255 42.9236C159.269 44.8015 158.148 46.6093 156.9 48.3334C155.481 50.3202 153.918 52.2048 152.221 53.9726C151.326 54.9077 150.367 55.8314 149.337 56.7206C148.294 57.6325 147.191 58.4776 146.035 59.2505C144.844 60.0665 143.553 60.7334 142.191 61.2354C141.491 61.4906 140.755 61.6414 140.008 61.6829C139.628 61.6953 139.248 61.6587 138.878 61.5739C138.509 61.4726 138.162 61.3074 137.854 61.0863C137.556 60.8505 137.307 60.5625 137.118 60.2372C136.94 59.9096 136.807 59.5605 136.723 59.1989C136.581 58.4847 136.549 57.7537 136.629 57.0303C136.789 55.6196 137.129 54.2339 137.642 52.9056C138.12 51.6221 138.684 50.3706 139.331 49.1595C139.961 47.9662 140.638 46.8303 141.338 45.7518C142.676 43.7119 144.159 41.7662 145.776 39.929C147.178 38.3241 148.697 36.8191 150.32 35.4256C151.653 34.2652 153.091 33.2246 154.617 32.3162C155.762 31.6183 157.011 31.0959 158.319 30.7673C158.798 30.6518 159.291 30.5978 159.784 30.6067C159.89 30.6067 159.99 30.6067 160.091 30.6067C160.186 30.6136 160.28 30.627 160.373 30.6468L160.626 30.6984L160.844 30.773C160.967 30.8104 161.085 30.8604 161.197 30.9222C161.244 30.9398 161.289 30.9609 161.332 30.9853L161.438 31.0599L161.627 31.2148Z" fill="#6744F3"/>
<path id="Vector_34" d="M129.737 54.6547C129.837 54.7527 129.905 54.8774 129.932 55.0131C129.96 55.1488 129.945 55.2893 129.891 55.417C129.836 55.5446 129.744 55.6537 129.626 55.7305C129.508 55.8072 129.37 55.8481 129.228 55.8481C129.086 55.8481 128.947 55.8072 128.829 55.7305C128.711 55.6537 128.619 55.5446 128.565 55.417C128.51 55.2893 128.496 55.1488 128.523 55.0131C128.551 54.8774 128.619 54.7527 128.719 54.6547C128.785 54.5893 128.865 54.5374 128.952 54.502C129.04 54.4666 129.133 54.4484 129.228 54.4484C129.322 54.4484 129.416 54.4666 129.504 54.502C129.591 54.5374 129.67 54.5893 129.737 54.6547Z" fill="#6744F3"/>
<path id="Vector_35" d="M170.344 32.9181C170.346 33.0579 170.304 33.1949 170.225 33.3117C170.146 33.4285 170.034 33.5198 169.902 33.5741C169.769 33.6284 169.624 33.6432 169.483 33.6166C169.342 33.5901 169.212 33.5233 169.111 33.4249C169.009 33.3264 168.939 33.2007 168.911 33.0637C168.882 32.9266 168.896 32.7845 168.951 32.6552C169.006 32.5259 169.098 32.4154 169.218 32.3376C169.337 32.2598 169.477 32.2183 169.62 32.2183C169.715 32.2175 169.809 32.235 169.897 32.2699C169.985 32.3047 170.065 32.3561 170.132 32.4212C170.199 32.4863 170.253 32.5637 170.289 32.649C170.326 32.7343 170.344 32.8257 170.344 32.9181Z" fill="#6744F3"/>
<path id="Vector_36" d="M134.281 56.9608C134.281 56.9959 134.27 57.0303 134.25 57.0595C134.23 57.0887 134.202 57.1115 134.168 57.125C134.135 57.1384 134.098 57.1419 134.063 57.1351C134.027 57.1282 133.995 57.1113 133.969 57.0865C133.944 57.0616 133.927 57.0299 133.92 56.9955C133.912 56.961 133.916 56.9253 133.93 56.8928C133.944 56.8603 133.967 56.8326 133.997 56.813C134.027 56.7935 134.062 56.7831 134.098 56.7831C134.147 56.7831 134.193 56.8018 134.228 56.8351C134.262 56.8685 134.281 56.9137 134.281 56.9608Z" fill="#6744F3"/>
<path id="Vector_37" d="M138.183 37.3068C138.183 37.3419 138.173 37.3763 138.153 37.4055C138.132 37.4347 138.104 37.4575 138.071 37.471C138.037 37.4844 138.001 37.4879 137.965 37.4811C137.93 37.4742 137.897 37.4573 137.872 37.4324C137.846 37.4076 137.829 37.3759 137.822 37.3414C137.815 37.307 137.818 37.2712 137.832 37.2388C137.846 37.2063 137.869 37.1785 137.899 37.159C137.929 37.1395 137.965 37.1291 138.001 37.1291C138.049 37.1291 138.096 37.1478 138.13 37.1811C138.164 37.2144 138.183 37.2596 138.183 37.3068Z" fill="#6744F3"/>
<path id="Vector_38" d="M166.724 46.8577C166.724 46.9048 166.705 46.95 166.671 46.9834C166.637 47.0167 166.59 47.0354 166.542 47.0354C166.493 47.0354 166.447 47.0167 166.413 46.9834C166.379 46.95 166.359 46.9048 166.359 46.8577C166.359 46.8106 166.379 46.7654 166.413 46.732C166.447 46.6987 166.493 46.68 166.542 46.68C166.59 46.68 166.637 46.6987 166.671 46.732C166.705 46.7654 166.724 46.8106 166.724 46.8577Z" fill="#6744F3"/>
<path id="Vector_39" d="M169.267 38.5508C169.267 38.598 169.248 38.6432 169.214 38.6765C169.18 38.7098 169.133 38.7286 169.085 38.7286C169.036 38.7286 168.99 38.7098 168.956 38.6765C168.922 38.6432 168.902 38.598 168.902 38.5508C168.902 38.5037 168.922 38.4585 168.956 38.4252C168.99 38.3919 169.036 38.3731 169.085 38.3731C169.133 38.3731 169.18 38.3919 169.214 38.4252C169.248 38.4585 169.267 38.5037 169.267 38.5508Z" fill="#6744F3"/>
<path id="Vector_40" d="M156.941 50.7765H154.681V38.7809C154.681 37.4222 154.127 36.1191 153.141 35.1584C152.156 34.1977 150.819 33.6579 149.425 33.6579C148.031 33.6579 146.694 34.1977 145.708 35.1584C144.722 36.1191 144.168 37.4222 144.168 38.7809V50.7765H141.891V38.7809C141.891 36.8379 142.683 34.9746 144.092 33.6007C145.502 32.2268 147.413 31.455 149.407 31.455C151.4 31.455 153.312 32.2268 154.722 33.6007C156.131 34.9746 156.923 36.8379 156.923 38.7809L156.941 50.7765Z" fill="#6744F3"/>
<g id="Group" opacity="0.3">
<path id="Vector_41" d="M156.941 50.7751H154.681V38.7795C154.681 37.4208 154.127 36.1177 153.141 35.157C152.156 34.1963 150.819 33.6565 149.425 33.6565C148.031 33.6565 146.694 34.1963 145.708 35.157C144.722 36.1177 144.168 37.4208 144.168 38.7795V50.7751H141.891V38.7795C141.891 36.8365 142.683 34.9732 144.092 33.5993C145.502 32.2254 147.413 31.4536 149.407 31.4536C151.4 31.4536 153.312 32.2254 154.722 33.5993C156.131 34.9732 156.923 36.8365 156.923 38.7795L156.941 50.7751Z" fill="black"/>
</g>
<path id="Vector_42" d="M158.232 45.4408H140.621C139.89 45.4408 139.297 46.0187 139.297 46.7316V56.8169C139.297 57.5297 139.89 58.1076 140.621 58.1076H158.232C158.963 58.1076 159.556 57.5297 159.556 56.8169V46.7316C159.556 46.0187 158.963 45.4408 158.232 45.4408Z" fill="#6744F3"/>
<g id="Group_2" opacity="0.3">
<path id="Vector_43" d="M151.121 50.1288C151.123 49.8208 151.037 49.5182 150.873 49.2553C150.708 48.9924 150.471 48.7795 150.189 48.6408C149.907 48.5021 149.59 48.4431 149.276 48.4703C148.961 48.4976 148.66 48.6101 148.407 48.7951C148.155 48.9802 147.96 49.2304 147.846 49.5175C147.731 49.8046 147.701 50.1172 147.759 50.42C147.818 50.7228 147.961 51.0037 148.175 51.231C148.388 51.4584 148.662 51.623 148.966 51.7065V54.1733H149.885V51.7065C150.239 51.6112 150.552 51.4054 150.775 51.1205C150.998 50.8356 151.12 50.4873 151.121 50.1288Z" fill="black"/>
</g>
<path id="Vector_44" d="M140.379 56.9086C140.332 56.9086 140.291 54.7975 140.291 52.193C140.291 49.5885 140.332 47.4716 140.379 47.4716C140.426 47.4716 140.462 49.5827 140.462 52.193C140.462 54.8032 140.421 56.9086 140.379 56.9086Z" fill="#FAFAFA"/>
<path id="Vector_45" d="M148.102 52.24C148.102 52.24 148.019 52.24 147.902 52.131C147.735 52.01 147.588 51.8649 147.466 51.7008C147.252 51.4303 147.102 51.1166 147.028 50.7825C146.954 50.4484 146.957 50.1024 147.038 49.7698C147.118 49.4371 147.274 49.1263 147.494 48.8599C147.714 48.5935 147.992 48.3783 148.308 48.23C148.492 48.1337 148.691 48.066 148.896 48.0292C148.972 48.0154 149.05 48.0154 149.126 48.0292C148.866 48.1153 148.612 48.2188 148.367 48.339C148.079 48.4935 147.828 48.7048 147.63 48.9594C147.431 49.214 147.289 49.5062 147.213 49.8173C147.137 50.1285 147.129 50.4516 147.189 50.7661C147.249 51.0806 147.375 51.3794 147.56 51.6434C147.724 51.8561 147.905 52.0557 148.102 52.24Z" fill="#FAFAFA"/>
<path id="Vector_46" d="M179.503 68.9678H117.13C114.101 68.9678 111.645 71.3616 111.645 74.3145V74.9685C111.645 77.9214 114.101 80.3152 117.13 80.3152H179.503C182.533 80.3152 184.989 77.9214 184.989 74.9685V74.3145C184.989 71.3616 182.533 68.9678 179.503 68.9678Z" fill="#F5F5F5"/>
<path id="Vector_47" d="M180.039 84.526H117.665C114.636 84.526 112.18 86.9198 112.18 89.8727V90.5267C112.18 93.4796 114.636 95.8734 117.665 95.8734H180.039C183.068 95.8734 185.524 93.4796 185.524 90.5267V89.8727C185.524 86.9198 183.068 84.526 180.039 84.526Z" fill="#F5F5F5"/>
<path id="Vector_48" d="M123.234 74.5498V72.9091H123.935V74.5269C123.935 75.1006 124.182 75.3128 124.606 75.3128C125.03 75.3128 125.277 75.0834 125.277 74.5269V72.9091H125.965V74.5498C125.965 74.9028 125.822 75.2414 125.565 75.491C125.309 75.7406 124.962 75.8808 124.6 75.8808C124.238 75.8808 123.89 75.7406 123.634 75.491C123.378 75.2414 123.234 74.9028 123.234 74.5498Z" fill="#263238"/>
<path id="Vector_49" d="M126.383 75.6339L126.601 75.1635C126.845 75.3051 127.123 75.3803 127.407 75.3815C127.719 75.3815 127.831 75.3012 127.831 75.175C127.831 74.8078 126.436 75.175 126.436 74.2858C126.436 73.8555 126.83 73.5514 127.507 73.5514C127.816 73.5466 128.121 73.6155 128.396 73.7522L128.172 74.2169C127.97 74.1044 127.74 74.0469 127.507 74.0505C127.207 74.0505 127.077 74.1423 127.077 74.2571C127.077 74.6414 128.472 74.2571 128.472 75.1577C128.472 75.5765 128.078 75.8748 127.383 75.8748C127.034 75.8824 126.689 75.7993 126.383 75.6339Z" fill="#263238"/>
<path id="Vector_50" d="M131.144 74.8995H129.378C129.414 75.0405 129.501 75.1641 129.624 75.2474C129.746 75.3307 129.895 75.3681 130.043 75.3527C130.151 75.3574 130.259 75.3404 130.361 75.3029C130.462 75.2655 130.554 75.2082 130.632 75.1347L130.991 75.5133C130.868 75.637 130.719 75.7334 130.555 75.7958C130.39 75.8581 130.214 75.8851 130.037 75.8747C129.871 75.8952 129.702 75.8807 129.541 75.8323C129.381 75.7839 129.233 75.7026 129.108 75.5939C128.983 75.4853 128.882 75.3518 128.814 75.2023C128.746 75.0528 128.712 74.8909 128.713 74.7274C128.713 74.5718 128.745 74.4177 128.808 74.2746C128.871 74.1316 128.963 74.0024 129.078 73.8951C129.194 73.7878 129.331 73.7045 129.48 73.6503C129.63 73.5962 129.789 73.5722 129.949 73.58C130.106 73.5762 130.262 73.603 130.408 73.659C130.555 73.7149 130.688 73.7988 130.8 73.9058C130.913 74.0127 131.002 74.1405 131.063 74.2816C131.124 74.4227 131.156 74.5743 131.156 74.7274C131.156 74.7733 131.144 74.8421 131.144 74.8995ZM129.378 74.5151H130.514C130.48 74.3936 130.406 74.2863 130.304 74.2098C130.201 74.1333 130.075 74.0919 129.946 74.0919C129.817 74.0919 129.691 74.1333 129.589 74.2098C129.486 74.2863 129.412 74.3936 129.378 74.5151Z" fill="#263238"/>
<path id="Vector_51" d="M133.063 73.5519V74.16H132.91C132.827 74.1596 132.746 74.1761 132.67 74.2085C132.595 74.2408 132.527 74.2883 132.472 74.3478C132.416 74.4073 132.374 74.4775 132.348 74.5539C132.322 74.6303 132.313 74.7111 132.321 74.7911V75.8524H131.65V73.5978H132.292V73.8617C132.387 73.7548 132.506 73.671 132.64 73.6172C132.774 73.5634 132.919 73.5411 133.063 73.5519Z" fill="#263238"/>
<path id="Vector_52" d="M135.806 74.5496V75.8404H135.135V74.6529C135.135 74.2857 134.964 74.1193 134.664 74.1193C134.364 74.1193 134.11 74.3144 134.11 74.7274V75.8404H133.439V73.5858H134.081V73.8612C134.18 73.7625 134.3 73.6851 134.431 73.6337C134.563 73.5824 134.704 73.5582 134.846 73.5629C134.979 73.5544 135.112 73.5745 135.236 73.6218C135.36 73.6692 135.472 73.7425 135.564 73.8367C135.655 73.9309 135.724 74.0437 135.766 74.1669C135.808 74.2901 135.821 74.4207 135.806 74.5496Z" fill="#263238"/>
<path id="Vector_53" d="M138.459 74.5559V75.8409H137.829V75.5827C137.752 75.6924 137.645 75.7797 137.521 75.8352C137.396 75.8908 137.259 75.9125 137.123 75.8983C136.582 75.8983 136.258 75.6057 136.258 75.2156C136.258 74.8255 136.546 74.5386 137.253 74.5386H137.77C137.77 74.2633 137.6 74.0969 137.235 74.0969C136.996 74.0961 136.762 74.1705 136.57 74.3092L136.328 73.8502C136.626 73.6626 136.975 73.5667 137.329 73.5749C138.047 73.5519 138.459 73.8617 138.459 74.5559ZM137.788 75.1295V74.9001H137.329C137.011 74.9001 136.917 75.0148 136.917 75.1639C136.917 75.3131 137.058 75.4393 137.294 75.4393C137.396 75.4423 137.497 75.4141 137.583 75.3586C137.668 75.3031 137.734 75.223 137.77 75.1295H137.788Z" fill="#263238"/>
<path id="Vector_54" d="M142.975 74.5494V75.8401H142.304V74.6526C142.304 74.2855 142.139 74.1191 141.868 74.1191C141.597 74.1191 141.356 74.3084 141.356 74.6928V75.8401H140.714V74.6526C140.714 74.2855 140.556 74.1191 140.273 74.1191C139.99 74.1191 139.767 74.3084 139.767 74.6928V75.8401H139.066V73.5856H139.708V73.8609C139.799 73.7627 139.911 73.6851 140.036 73.6336C140.161 73.582 140.296 73.5578 140.432 73.5626C140.582 73.5559 140.73 73.5867 140.864 73.652C140.998 73.7173 141.113 73.8149 141.197 73.9355C141.297 73.8142 141.425 73.7173 141.57 73.6526C141.715 73.5878 141.873 73.557 142.033 73.5626C142.165 73.5547 142.297 73.5754 142.42 73.6232C142.543 73.671 142.653 73.7447 142.743 73.8391C142.833 73.9334 142.901 74.0461 142.941 74.1689C142.981 74.2917 142.992 74.4216 142.975 74.5494Z" fill="#263238"/>
<path id="Vector_55" d="M145.859 74.8995H144.093C144.123 75.0426 144.208 75.1693 144.33 75.2535C144.453 75.3377 144.604 75.3732 144.752 75.3527C144.86 75.357 144.968 75.3399 145.069 75.3025C145.17 75.265 145.263 75.2079 145.341 75.1347L145.694 75.5133C145.572 75.6377 145.423 75.7344 145.258 75.7969C145.093 75.8593 144.917 75.8859 144.74 75.8747C144.574 75.8943 144.406 75.8792 144.246 75.8303C144.087 75.7815 143.94 75.7001 143.815 75.5915C143.69 75.483 143.591 75.3498 143.523 75.2007C143.455 75.0517 143.421 74.8904 143.422 74.7274C143.422 74.5718 143.454 74.4177 143.517 74.2746C143.58 74.1316 143.672 74.0024 143.787 73.8951C143.903 73.7878 144.04 73.7045 144.189 73.6503C144.339 73.5962 144.498 73.5722 144.658 73.58C144.97 73.58 145.27 73.7009 145.49 73.9161C145.711 74.1312 145.835 74.4231 145.835 74.7274C145.87 74.7733 145.865 74.8421 145.859 74.8995ZM144.093 74.5151H145.235C145.216 74.3792 145.144 74.2555 145.035 74.1692C144.925 74.0829 144.787 74.0404 144.646 74.0504C144.512 74.0481 144.382 74.0943 144.281 74.1801C144.18 74.266 144.115 74.3853 144.099 74.5151H144.093Z" fill="#263238"/>
<path id="Vector_56" d="M150.296 74.6936C150.296 75.4451 149.943 75.8754 149.413 75.8754C149.287 75.8835 149.162 75.8522 149.057 75.7861C148.951 75.7201 148.869 75.6227 148.824 75.5082C148.746 75.6276 148.637 75.7245 148.507 75.789C148.378 75.8535 148.234 75.8833 148.088 75.8754C147.819 75.848 147.57 75.7244 147.389 75.5284C147.207 75.3324 147.107 75.0779 147.107 74.8141C147.107 74.5502 147.207 74.2957 147.389 74.0997C147.57 73.9037 147.819 73.7801 148.088 73.7528C148.213 73.7471 148.337 73.7695 148.452 73.8183C148.566 73.867 148.667 73.9408 148.748 74.0339V73.7872H149.336V75.1411C149.336 75.3418 149.425 75.4107 149.542 75.4107C149.66 75.4107 149.86 75.187 149.86 74.7051C149.863 74.5049 149.822 74.3064 149.741 74.1225C149.66 73.9386 149.54 73.7735 149.389 73.6377C149.238 73.5019 149.059 73.3986 148.864 73.3344C148.67 73.2702 148.464 73.2466 148.259 73.2651C147.845 73.2651 147.449 73.4253 147.156 73.7104C146.864 73.9955 146.699 74.3822 146.699 74.7854C146.699 75.1886 146.864 75.5753 147.156 75.8604C147.449 76.1455 147.845 76.3056 148.259 76.3056C148.552 76.3053 148.841 76.2426 149.107 76.1221L149.242 76.5064C148.934 76.6438 148.598 76.7124 148.259 76.7072C147.992 76.7215 147.724 76.6824 147.472 76.5924C147.221 76.5024 146.99 76.3634 146.796 76.1838C146.601 76.0042 146.446 75.7878 146.34 75.5479C146.234 75.3079 146.18 75.0495 146.18 74.7883C146.18 74.527 146.234 74.2686 146.34 74.0286C146.446 73.7887 146.601 73.5723 146.796 73.3927C146.99 73.2131 147.221 73.0741 147.472 72.9841C147.724 72.8941 147.992 72.855 148.259 72.8693C148.518 72.8487 148.779 72.8806 149.024 72.9628C149.27 73.0451 149.495 73.176 149.687 73.3474C149.878 73.5187 150.031 73.7267 150.136 73.9584C150.24 74.1901 150.295 74.4404 150.296 74.6936ZM148.759 74.8141C148.768 74.7406 148.76 74.6663 148.737 74.596C148.713 74.5258 148.674 74.4613 148.623 74.4069C148.572 74.3525 148.509 74.3095 148.439 74.2808C148.369 74.2521 148.294 74.2383 148.218 74.2404C148.062 74.2404 147.912 74.3008 147.802 74.4084C147.691 74.516 147.629 74.6619 147.629 74.8141C147.629 74.9662 147.691 75.1121 147.802 75.2197C147.912 75.3273 148.062 75.3877 148.218 75.3877C148.294 75.3898 148.369 75.3761 148.439 75.3473C148.509 75.3186 148.572 75.2756 148.623 75.2212C148.674 75.1668 148.713 75.1023 148.737 75.0321C148.76 74.9619 148.768 74.8875 148.759 74.8141Z" fill="#263238"/>
<path id="Vector_57" d="M154.682 74.5497V75.8405H154.011V74.653C154.011 74.2858 153.846 74.1195 153.575 74.1195C153.304 74.1195 153.063 74.3088 153.063 74.6932V75.8405H152.392V74.653C152.392 74.2858 152.233 74.1195 151.951 74.1195C151.668 74.1195 151.444 74.3088 151.444 74.6932V75.8405H150.773V73.586H151.415V73.8613C151.506 73.7631 151.618 73.6855 151.743 73.634C151.868 73.5824 152.003 73.5582 152.139 73.563C152.289 73.5563 152.437 73.5871 152.571 73.6524C152.705 73.7176 152.82 73.8152 152.904 73.9359C153.003 73.815 153.13 73.7184 153.274 73.6536C153.418 73.5889 153.575 73.5578 153.734 73.563C153.867 73.5542 153.999 73.5742 154.123 73.6216C154.246 73.669 154.358 73.7426 154.448 73.8371C154.539 73.9315 154.607 74.0445 154.647 74.1678C154.688 74.291 154.699 74.4215 154.682 74.5497Z" fill="#263238"/>
<path id="Vector_58" d="M157.33 74.5559V75.8409H156.706V75.5827C156.629 75.6924 156.522 75.7797 156.398 75.8352C156.273 75.8908 156.136 75.9125 156 75.8983C155.458 75.8983 155.135 75.6057 155.135 75.2156C155.135 74.8255 155.423 74.5386 156.129 74.5386H156.659C156.659 74.2633 156.489 74.0969 156.129 74.0969C155.89 74.094 155.656 74.1686 155.464 74.3092L155.223 73.8502C155.519 73.6637 155.865 73.5678 156.218 73.5749C156.924 73.5519 157.33 73.8617 157.33 74.5559ZM156.659 75.1295V74.9001H156.2C155.888 74.9001 155.788 75.0148 155.788 75.1639C155.788 75.3131 155.929 75.4393 156.165 75.4393C156.27 75.446 156.375 75.4196 156.464 75.3638C156.553 75.308 156.622 75.2259 156.659 75.1295Z" fill="#263238"/>
<path id="Vector_59" d="M157.859 72.9085C157.86 72.857 157.871 72.8061 157.893 72.7592C157.915 72.7122 157.947 72.6702 157.986 72.6357C158.025 72.6012 158.071 72.575 158.121 72.5587C158.172 72.5425 158.225 72.5366 158.277 72.5413C158.349 72.5491 158.418 72.577 158.474 72.6218C158.53 72.6665 158.572 72.7262 158.595 72.7936C158.617 72.861 158.619 72.9332 158.6 73.0016C158.581 73.07 158.542 73.1316 158.488 73.179C158.434 73.2264 158.367 73.2576 158.296 73.2688C158.224 73.28 158.15 73.2708 158.084 73.2422C158.018 73.2136 157.961 73.1669 157.921 73.1077C157.881 73.0485 157.86 72.9793 157.859 72.9085ZM157.942 73.5854H158.607V75.84H157.942V73.5854Z" fill="#263238"/>
<path id="Vector_60" d="M159.238 72.7147H159.909V75.824H159.238V72.7147Z" fill="#263238"/>
<path id="Vector_61" d="M160.367 75.4671C160.367 75.3592 160.411 75.2557 160.49 75.1793C160.568 75.103 160.674 75.0601 160.785 75.0601C160.896 75.0601 161.002 75.103 161.081 75.1793C161.159 75.2557 161.203 75.3592 161.203 75.4671C161.203 75.5751 161.159 75.6786 161.081 75.7549C161.002 75.8313 160.896 75.8741 160.785 75.8741C160.674 75.8741 160.568 75.8313 160.49 75.7549C160.411 75.6786 160.367 75.5751 160.367 75.4671Z" fill="#263238"/>
<path id="Vector_62" d="M161.458 74.7155C161.457 74.5552 161.491 74.3965 161.557 74.2497C161.623 74.1029 161.719 73.9712 161.841 73.8631C161.962 73.755 162.106 73.6729 162.262 73.6221C162.418 73.5713 162.583 73.5529 162.747 73.5681C162.958 73.5507 163.171 73.5961 163.356 73.6985C163.541 73.8009 163.689 73.9554 163.782 74.1418L163.265 74.4114C163.205 74.326 163.124 74.2569 163.029 74.2108C162.934 74.1647 162.828 74.1433 162.723 74.1484C162.617 74.1536 162.514 74.1852 162.424 74.2402C162.334 74.2953 162.261 74.3719 162.21 74.4627C162.16 74.5535 162.134 74.6555 162.135 74.7589C162.137 74.8622 162.166 74.9634 162.219 75.0527C162.272 75.1421 162.348 75.2165 162.44 75.269C162.531 75.3215 162.635 75.3501 162.741 75.3523C162.849 75.3525 162.955 75.3237 163.047 75.269C163.14 75.2144 163.215 75.136 163.265 75.0425L163.782 75.3178C163.688 75.5032 163.539 75.6568 163.355 75.759C163.17 75.8612 162.958 75.9074 162.747 75.8915C162.58 75.907 162.413 75.8879 162.255 75.8354C162.096 75.7829 161.952 75.6983 161.83 75.587C161.708 75.4758 161.612 75.3406 161.547 75.1903C161.483 75.04 161.453 74.8782 161.458 74.7155Z" fill="#263238"/>
<path id="Vector_63" d="M163.97 74.716C163.951 74.4678 164.01 74.2199 164.137 74.0044C164.265 73.7889 164.456 73.6159 164.686 73.5079C164.916 73.3999 165.174 73.3619 165.427 73.3988C165.679 73.4357 165.915 73.5459 166.102 73.715C166.289 73.8841 166.42 74.1042 166.477 74.3467C166.534 74.5892 166.515 74.8429 166.423 75.0747C166.33 75.3066 166.167 75.5058 165.957 75.6464C165.746 75.7871 165.497 75.8627 165.242 75.8634C165.079 75.8761 164.916 75.8558 164.762 75.8038C164.608 75.7519 164.467 75.6694 164.348 75.5616C164.228 75.4537 164.133 75.3229 164.068 75.1774C164.003 75.0318 163.97 74.8747 163.97 74.716ZM165.83 74.716C165.82 74.6053 165.777 74.4999 165.706 74.4126C165.636 74.3252 165.541 74.2598 165.433 74.2242C165.325 74.1886 165.208 74.1843 165.098 74.212C164.987 74.2396 164.887 74.2979 164.81 74.3798C164.733 74.4617 164.682 74.5637 164.663 74.6734C164.645 74.783 164.659 74.8956 164.705 74.9975C164.75 75.0993 164.825 75.186 164.921 75.2471C165.016 75.3081 165.128 75.3409 165.242 75.3413C165.324 75.3416 165.405 75.3253 165.48 75.2933C165.555 75.2613 165.622 75.2143 165.678 75.1555C165.733 75.0966 165.775 75.0271 165.802 74.9514C165.828 74.8758 165.838 74.7956 165.83 74.716Z" fill="#263238"/>
<path id="Vector_64" d="M170.867 74.5497V75.8405H170.196V74.653C170.196 74.2858 170.026 74.1195 169.755 74.1195C169.484 74.1195 169.243 74.3088 169.243 74.6932V75.8405H168.572V74.653C168.572 74.2858 168.413 74.1195 168.136 74.1195C167.86 74.1195 167.63 74.3088 167.63 74.6932V75.8405H166.959V73.586H167.595V73.8613C167.687 73.763 167.8 73.6853 167.926 73.6338C168.052 73.5823 168.188 73.5581 168.325 73.563C168.473 73.5556 168.622 73.5861 168.755 73.6515C168.888 73.7169 169.001 73.8149 169.084 73.9359C169.184 73.8153 169.312 73.7188 169.457 73.6541C169.602 73.5895 169.76 73.5583 169.92 73.563C170.052 73.5542 170.185 73.5742 170.308 73.6216C170.432 73.669 170.543 73.7426 170.634 73.8371C170.725 73.9315 170.793 74.0445 170.833 74.1678C170.873 74.291 170.885 74.4215 170.867 74.5497Z" fill="#263238"/>
<path id="Vector_65" d="M132.221 90.2635L133.309 90.8372L132.821 91.6346L131.72 91.0036V92.1854H130.778V90.9921L129.713 91.6461L129.23 90.8487L130.325 90.275L129.23 89.7013L129.713 88.9039L130.814 89.5464V88.3589H131.756V89.5464L132.856 88.9039L133.345 89.7013L132.221 90.2635Z" fill="#263238"/>
<path id="Vector_66" d="M136.76 90.2635L137.849 90.8372L137.36 91.6461L136.259 91.015V92.1968H135.323V91.0036L134.24 91.6461L133.758 90.8487L134.847 90.275L133.758 89.7013L134.24 88.9039L135.341 89.5464V88.3589H136.277V89.5464L137.378 88.9039L137.866 89.7013L136.76 90.2635Z" fill="#263238"/>
<path id="Vector_67" d="M141.303 90.2635L142.391 90.8372L141.891 91.6461L140.796 91.015V92.1968H139.855V91.0036L138.783 91.6461L138.307 90.8487L139.396 90.275L138.307 89.7013L138.783 88.9039L139.884 89.5464V88.3589H140.826V89.5464L141.921 88.9039L142.415 89.7013L141.303 90.2635Z" fill="#263238"/>
<path id="Vector_68" d="M145.83 90.2635L146.919 90.8372L146.43 91.6346L145.33 91.0036V92.1854H144.388V90.9921L143.322 91.6461L142.84 90.8487L143.935 90.275L142.84 89.7013L143.322 88.9039L144.423 89.5464V88.3589H145.365V89.5464L146.466 88.9039L146.954 89.7013L145.83 90.2635Z" fill="#263238"/>
<path id="Vector_69" d="M150.367 90.263L151.456 90.8367L150.967 91.6341L149.867 91.0031V92.1848H148.954V90.9916L147.86 91.6456L147.377 90.8482L148.466 90.2745L147.377 89.7008L147.86 88.9034L148.954 89.523V88.3354H149.89V89.523L150.991 88.8804L151.479 89.6779L150.367 90.263Z" fill="#263238"/>
<path id="Vector_70" d="M154.906 90.2635L155.995 90.8372L155.506 91.6346L154.406 91.0036V92.1854H153.464V90.9921L152.393 91.6461L151.916 90.8487L153.005 90.275L151.916 89.7013L152.393 88.9039L153.493 89.5464V88.3589H154.435V89.5464L155.536 88.9039L156.024 89.7013L154.906 90.2635Z" fill="#263238"/>
<path id="Vector_71" d="M159.437 90.2635L160.526 90.8372L160.038 91.6346L158.937 91.0036V92.1854H157.995V90.9921L156.93 91.6461L156.447 90.8487L157.542 90.275L156.447 89.7013L156.93 88.9039L158.031 89.5464V88.3589H158.961V89.5464L160.061 88.9039L160.55 89.7013L159.437 90.2635Z" fill="#263238"/>
<path id="Vector_72" d="M163.976 90.2635L165.065 90.8372L164.577 91.6346L163.476 91.0036V92.1854H162.54V90.9921L161.469 91.6461L160.986 90.8487L162.075 90.275L160.986 89.7013L161.469 88.9039L162.57 89.5464V88.3589H163.506V89.5464L164.606 88.9039L165.095 89.7013L163.976 90.2635Z" fill="#263238"/>
</g>
<g id="Message">
<path id="Vector_73" d="M110.52 58.5711H64.6691C64.3556 58.5711 64.0451 58.6314 63.7555 58.7485C63.4659 58.8656 63.2029 59.0373 62.9815 59.2536C62.76 59.47 62.5846 59.7268 62.4651 60.0093C62.3457 60.2919 62.2846 60.5946 62.2853 60.9002V81.2544C62.2814 81.5605 62.3404 81.8644 62.4588 82.148C62.5771 82.4317 62.7526 82.6893 62.9747 82.9058C63.1969 83.1224 63.4612 83.2934 63.7522 83.4088C64.0432 83.5242 64.355 83.5816 64.6691 83.5778H83.9043L87.9892 88.6893L91.3971 83.5778H110.52C110.834 83.5778 111.144 83.5177 111.433 83.4009C111.722 83.2841 111.985 83.113 112.206 82.8973C112.427 82.6815 112.603 82.4254 112.723 82.1435C112.843 81.8616 112.904 81.5595 112.904 81.2544V60.9002C112.904 60.2835 112.653 59.6919 112.206 59.2553C111.76 58.8187 111.153 58.5726 110.52 58.5711Z" fill="white"/>
<path id="Vector_74" d="M110.52 58.5714H110.744C110.967 58.5903 111.187 58.6385 111.397 58.7149C111.741 58.835 112.051 59.0314 112.304 59.2885C112.664 59.6667 112.886 60.1511 112.933 60.6654C112.98 62.8798 112.969 66.1039 112.986 70.1884C112.986 72.2307 112.986 74.4853 112.986 76.9292C112.986 78.1569 112.986 79.4247 112.986 80.7442C113.002 81.0814 112.987 81.4194 112.939 81.7538C112.867 82.1019 112.718 82.4307 112.504 82.7176C112.283 83.0118 111.998 83.2542 111.669 83.427C111.34 83.5997 110.976 83.6984 110.603 83.7158H91.3673L91.485 83.6584C90.4138 85.259 89.2602 86.9973 88.083 88.7642L87.9711 88.9306L87.8416 88.7757L83.7568 83.6699L83.8745 83.7273H65.3751C65.0396 83.7273 64.7276 83.7273 64.3686 83.7273C63.8462 83.6666 63.3559 83.4499 62.9649 83.1068C62.574 82.7638 62.3015 82.3112 62.1849 81.8112C62.1262 81.4895 62.1045 81.1624 62.1201 80.8359V72.4315C62.1201 69.9877 62.1201 67.5916 62.1201 65.2433V60.9006C62.1204 60.5983 62.1782 60.2987 62.2908 60.0171C62.5091 59.4573 62.927 58.9929 63.468 58.7091C63.7383 58.5744 64.0315 58.4888 64.3333 58.4567C64.6234 58.4425 64.9142 58.4425 65.2044 58.4567H70.2133H76.5583H87.9417L104.422 58.5026L108.901 58.5313L104.422 58.56L87.9417 58.6059H76.5583H65.2515C64.9689 58.6059 64.6629 58.6059 64.4098 58.6059C64.1424 58.6357 63.883 58.7135 63.6446 58.8353C63.1578 59.0784 62.7789 59.4864 62.5793 59.9827C62.4783 60.233 62.4264 60.4996 62.4262 60.7686V61.6291C62.4262 62.7765 62.4262 63.9239 62.4262 65.1114V72.2996C62.4262 74.7396 62.4262 77.2256 62.4262 79.7574V80.7097C62.4076 81.0148 62.4254 81.3209 62.4792 81.6219C62.5829 82.0613 62.8236 82.4588 63.1681 82.7597C63.5127 83.0606 63.9444 83.2503 64.4039 83.3028C64.7041 83.3315 65.0513 83.3028 65.3751 83.3028H83.9746L84.0217 83.3601L88.1065 88.4659H87.8652L91.2731 83.3601L91.3143 83.297H91.3967H110.62C110.959 83.286 111.29 83.1996 111.589 83.0445C111.888 82.8894 112.146 82.6696 112.345 82.4021C112.544 82.1445 112.681 81.8464 112.745 81.5301C112.79 81.2089 112.806 80.8845 112.792 80.5606C112.792 79.2411 112.792 77.9733 112.792 76.7456C112.792 74.3017 112.792 72.0472 112.792 70.0049C112.792 65.9317 112.792 62.7077 112.822 60.4875C112.769 60.0076 112.563 59.556 112.233 59.1967C111.991 58.9336 111.691 58.7276 111.356 58.5944C111.08 58.548 110.798 58.5403 110.52 58.5714Z" fill="#263238"/>
<path id="Vector_75" d="M79.008 64.3195V65.0711H78.5077V64.3138L77.6602 62.9599H78.1958L78.7844 63.9008L79.373 62.9599H79.8674L79.008 64.3195Z" fill="#263238"/>
<path id="Vector_76" d="M79.843 64.0104C79.8324 63.7815 79.8924 63.5548 80.0151 63.3595C80.1379 63.1641 80.3178 63.0091 80.5318 62.9143C80.7457 62.8194 80.9839 62.7892 81.2156 62.8275C81.4474 62.8658 81.662 62.9708 81.832 63.129C82.002 63.2872 82.1195 63.4914 82.1693 63.7152C82.2192 63.9391 82.1992 64.1724 82.1119 64.385C82.0246 64.5977 81.8739 64.78 81.6794 64.9086C81.4848 65.0371 81.2552 65.1059 81.0202 65.1061C80.8681 65.1131 80.7162 65.0899 80.5737 65.038C80.4311 64.9861 80.3008 64.9065 80.1908 64.804C80.0807 64.7016 79.9931 64.5784 79.9333 64.442C79.8736 64.3055 79.8428 64.1587 79.843 64.0104ZM81.7147 64.0104C81.7135 63.879 81.6725 63.7509 81.5968 63.6422C81.5211 63.5336 81.414 63.4491 81.2892 63.3997C81.1643 63.3502 81.0272 63.3378 80.8952 63.3641C80.7631 63.3904 80.642 63.4543 80.5471 63.5476C80.4522 63.6409 80.3878 63.7594 80.3619 63.8884C80.336 64.0173 80.3499 64.1508 80.4017 64.2721C80.4536 64.3933 80.5411 64.4969 80.6532 64.5698C80.7654 64.6427 80.8972 64.6816 81.0319 64.6816C81.1228 64.684 81.2132 64.6682 81.2975 64.6353C81.3818 64.6023 81.4584 64.5529 81.5223 64.49C81.5863 64.4271 81.6364 64.3521 81.6695 64.2696C81.7026 64.1871 81.718 64.0989 81.7147 64.0104Z" fill="#263238"/>
<path id="Vector_77" d="M82.5918 64.136V62.9599H83.098V64.1073C83.098 64.5089 83.2804 64.681 83.5806 64.681C83.8808 64.681 84.0692 64.5146 84.0692 64.1073V62.9599H84.5695V64.1475C84.5695 64.4031 84.4653 64.6482 84.2798 64.8289C84.0944 65.0097 83.8429 65.1112 83.5806 65.1112C83.3184 65.1112 83.0669 65.0097 82.8814 64.8289C82.696 64.6482 82.5918 64.4031 82.5918 64.1475V64.136Z" fill="#263238"/>
<path id="Vector_78" d="M86.4594 65.0711L86.0415 64.4974H85.5765V65.0711H85.0703V62.9599H86.0121C86.6006 62.9599 86.9597 63.2525 86.9597 63.7287C86.9662 63.872 86.9266 64.0138 86.8464 64.1341C86.7662 64.2545 86.6494 64.3474 86.5124 64.3999L87.0009 65.0825L86.4594 65.0711ZM85.9885 63.35H85.5765V64.1073H85.9885C86.2946 64.1073 86.4476 63.9639 86.4476 63.7344C86.4476 63.5049 86.2946 63.3443 85.9767 63.3443L85.9885 63.35Z" fill="#263238"/>
<path id="Vector_79" d="M88.1055 64.0091C88.1074 63.7739 88.1835 63.5449 88.3235 63.3532C88.4634 63.1614 88.6604 63.0163 88.8879 62.9374C89.1153 62.8585 89.3621 62.8497 89.5949 62.9121C89.8276 62.9745 90.0351 63.1051 90.1891 63.2863L89.8654 63.5789C89.7987 63.4988 89.7143 63.4345 89.6184 63.3908C89.5226 63.3471 89.4179 63.3251 89.3121 63.3265C89.1382 63.3421 88.9765 63.4204 88.8588 63.5462C88.7411 63.672 88.6758 63.836 88.6758 64.0063C88.6758 64.1765 88.7411 64.3406 88.8588 64.4664C88.9765 64.5921 89.1382 64.6705 89.3121 64.6861C89.4175 64.6886 89.5221 64.6677 89.6179 64.6249C89.7138 64.5822 89.7984 64.5188 89.8654 64.4394L90.1891 64.7262C90.0354 64.9071 89.8285 65.0376 89.5963 65.1002C89.3641 65.1627 89.1178 65.1544 88.8906 65.0762C88.6634 64.998 88.4663 64.8538 88.3259 64.663C88.1855 64.4721 88.1086 64.2439 88.1055 64.0091Z" fill="#263238"/>
<path id="Vector_80" d="M90.3488 64.0104C90.3383 63.7815 90.3982 63.5548 90.521 63.3595C90.6437 63.1641 90.8237 63.0091 91.0376 62.9143C91.2516 62.8194 91.4898 62.7892 91.7215 62.8275C91.9532 62.8658 92.1679 62.9708 92.3379 63.129C92.5078 63.2872 92.6253 63.4914 92.6752 63.7152C92.7251 63.9391 92.7051 64.1724 92.6178 64.385C92.5304 64.5977 92.3798 64.78 92.1852 64.9086C91.9907 65.0371 91.7611 65.1059 91.526 65.1061C91.374 65.1131 91.2221 65.0899 91.0795 65.038C90.937 64.9861 90.8067 64.9065 90.6966 64.804C90.5866 64.7016 90.499 64.5784 90.4392 64.442C90.3794 64.3055 90.3487 64.1587 90.3488 64.0104ZM92.2206 64.0104C92.2183 63.8793 92.1763 63.7517 92.0998 63.6438C92.0234 63.5359 91.916 63.4524 91.791 63.4038C91.6661 63.3552 91.5292 63.3436 91.3975 63.3706C91.2659 63.3975 91.1453 63.4618 91.051 63.5553C90.9567 63.6488 90.8928 63.7674 90.8674 63.8962C90.842 64.0249 90.8562 64.1582 90.9082 64.2791C90.9602 64.4 91.0477 64.5033 91.1597 64.5759C91.2717 64.6485 91.4033 64.6873 91.5378 64.6873C91.6292 64.6898 91.7201 64.6738 91.8048 64.6405C91.8896 64.6072 91.9664 64.5573 92.0304 64.4938C92.0945 64.4302 92.1444 64.3545 92.1772 64.2714C92.2099 64.1882 92.2247 64.0993 92.2206 64.0104Z" fill="#263238"/>
<path id="Vector_81" d="M93.1152 62.9598H94.11C94.2625 62.9443 94.4166 62.9602 94.5624 63.0065C94.7082 63.0528 94.8424 63.1284 94.9563 63.2285C95.0702 63.3285 95.1612 63.4508 95.2236 63.5873C95.2859 63.7239 95.3181 63.8716 95.3181 64.0211C95.3181 64.1705 95.2859 64.3183 95.2236 64.4548C95.1612 64.5914 95.0702 64.7137 94.9563 64.8137C94.8424 64.9138 94.7082 64.9894 94.5624 65.0357C94.4166 65.0819 94.2625 65.0979 94.11 65.0824H93.1152V62.9598ZM94.0805 64.6808C94.26 64.6808 94.4322 64.6113 94.5592 64.4876C94.6861 64.3639 94.7574 64.1961 94.7574 64.0211C94.7574 63.8461 94.6861 63.6783 94.5592 63.5546C94.4322 63.4309 94.26 63.3614 94.0805 63.3614H93.6273V64.6808H94.0805Z" fill="#263238"/>
<path id="Vector_82" d="M97.3826 64.681V65.0768H95.6934V62.9599H97.3414V63.35H96.1937V63.8147H97.206V64.1991H96.1937V64.681H97.3826Z" fill="#263238"/>
<path id="Vector_83" d="M106.047 67.3029H69.1481C67.9941 67.3029 67.0586 68.2147 67.0586 69.3395V76.935C67.0586 78.0598 67.9941 78.9716 69.1481 78.9716H106.047C107.201 78.9716 108.136 78.0598 108.136 76.935V69.3395C108.136 68.2147 107.201 67.3029 106.047 67.3029Z" fill="#F5F5F5"/>
<path id="Vector_84" d="M75.3805 73.8602C75.3816 74.1004 75.3311 74.3381 75.2322 74.5581C75.1334 74.7781 74.9883 74.9755 74.8065 75.1376C74.6247 75.2997 74.41 75.423 74.1764 75.4993C73.9427 75.5757 73.6953 75.6036 73.4499 75.5812C71.9314 75.5812 71.125 74.5142 71.125 72.7472C71.125 70.8311 72.1668 69.8501 73.703 69.8501C74.1589 69.8309 74.6118 69.9298 75.0156 70.137L74.8449 70.4697C74.4957 70.2833 74.1007 70.194 73.703 70.2116C72.4022 70.2116 71.5488 71.0434 71.5488 72.6841C71.547 72.9106 71.5627 73.1369 71.5959 73.3611C71.7341 73 71.9893 72.6927 72.3228 72.4857C72.6563 72.2786 73.0499 72.1832 73.4441 72.2137C74.6271 72.1736 75.3805 72.8333 75.3805 73.8602ZM74.9567 73.8602C74.9567 73.0513 74.3681 72.5292 73.3852 72.5292C73.1878 72.5095 72.9883 72.5292 72.799 72.5872C72.6097 72.6451 72.4345 72.7401 72.2841 72.8663C72.1337 72.9925 72.0113 73.1472 71.9243 73.321C71.8374 73.4949 71.7877 73.6842 71.7783 73.8774C71.7783 74.5371 72.3669 75.2026 73.4382 75.2026C73.6326 75.2264 73.8299 75.2093 74.017 75.1525C74.204 75.0957 74.3764 75.0004 74.5225 74.8733C74.6686 74.7461 74.7851 74.5898 74.864 74.4151C74.943 74.2403 74.9826 74.0511 74.9803 73.8602H74.9567Z" fill="#6744F3"/>
<path id="Vector_85" d="M83.0984 73.9519H81.8859V75.5181H81.468V73.9519H78.166V73.6536L81.315 69.8673H81.7859L78.6958 73.5848H81.4798V72.2079H81.8859V73.5848H83.0984V73.9519Z" fill="#6744F3"/>
</g>
<g id="Plant">
<path id="Vector_86" d="M225.707 220.448C233.412 217.258 242.335 210.988 246.308 203.295C237.758 206.753 230.548 212.757 225.707 220.448Z" fill="#263238"/>
<path id="Vector_87" d="M227.35 208.509C235.054 205.325 243.977 199.055 247.95 191.362C239.399 194.816 232.188 200.818 227.35 208.509Z" fill="#263238"/>
<path id="Vector_88" d="M229.592 196.903C237.302 193.714 246.22 187.443 250.193 179.756C241.642 183.21 234.431 189.212 229.592 196.903Z" fill="#263238"/>
<path id="Vector_89" d="M232.371 184.753C239.64 180.565 247.745 173.107 250.782 164.973C242.705 169.559 236.28 176.468 232.389 184.753" fill="#263238"/>
<path id="Vector_90" d="M235.361 175.454C240.659 168.701 245.597 158.651 245.532 149.942C239.644 157.287 236.107 166.161 235.361 175.454Z" fill="#263238"/>
<path id="Vector_91" d="M233.877 179.878C232.806 170.745 229.169 159.265 222.977 152.416C224.022 162.356 227.787 171.84 233.877 179.878Z" fill="#263238"/>
<path id="Vector_92" d="M231.388 189.864C229.504 180.45 224.737 168.804 217.709 162.201C219.633 172.453 224.359 182.01 231.388 189.864Z" fill="#263238"/>
<path id="Vector_93" d="M228.526 202.044C226.649 192.612 221.869 180.984 214.877 174.381C216.801 184.633 221.527 194.19 228.556 202.044" fill="#263238"/>
<path id="Vector_94" d="M226.232 217C224.342 207.586 219.575 195.94 212.553 189.337C214.477 199.589 219.202 209.146 226.232 217Z" fill="#263238"/>
<path id="Vector_95" d="M235.72 173.681C235.691 173.725 235.671 173.774 235.661 173.825C235.62 173.934 235.573 174.071 235.514 174.243C235.384 174.639 235.202 175.184 234.978 175.873C234.513 177.29 233.889 179.349 233.154 181.908C232.418 184.466 231.606 187.524 230.77 190.937C229.934 194.351 229.11 198.131 228.333 202.113C227.556 206.094 226.95 209.915 226.438 213.391C225.926 216.868 225.561 220.011 225.296 222.65C225.031 225.289 224.843 227.435 224.749 228.921C224.701 229.644 224.666 230.212 224.637 230.642C224.637 230.825 224.637 230.969 224.637 231.089C224.629 231.139 224.629 231.189 224.637 231.238C224.655 231.191 224.665 231.14 224.666 231.089C224.666 230.975 224.666 230.825 224.713 230.648C224.754 230.234 224.813 229.667 224.884 228.926C225.013 227.452 225.231 225.312 225.525 222.673C225.82 220.034 226.226 216.902 226.732 213.431C227.238 209.961 227.909 206.151 228.651 202.17C229.393 198.189 230.252 194.42 231.058 191.001C231.865 187.581 232.665 184.524 233.377 181.959C234.089 179.395 234.678 177.33 235.108 175.907L235.59 174.261C235.637 174.088 235.673 173.945 235.708 173.83C235.719 173.781 235.723 173.731 235.72 173.681Z" fill="#263238"/>
<path id="Vector_96" d="M221.942 225.416C225.208 218.749 227.586 209.352 225.985 202.05C222.333 209.289 220.927 217.409 221.942 225.416Z" fill="#455A64"/>
<path id="Vector_97" d="M216.519 216.782C219.785 210.11 222.163 200.719 220.557 193.416C216.903 200.655 215.499 208.776 216.519 216.782Z" fill="#455A64"/>
<path id="Vector_98" d="M211.646 207.998C214.912 201.327 217.29 191.935 215.683 184.633C212.029 191.871 210.626 199.993 211.646 207.998Z" fill="#455A64"/>
<path id="Vector_99" d="M206.843 198.527C209.274 191.47 210.493 181.844 208.021 174.805C205.278 182.434 204.869 190.675 206.843 198.527Z" fill="#455A64"/>
<path id="Vector_100" d="M203.695 190.77C203.454 183.261 201.188 173.853 196.402 168.305C196.509 176.33 199.046 184.146 203.695 190.77Z" fill="#455A64"/>
<path id="Vector_101" d="M205.16 194.495C199.492 189.286 190.875 184.105 183.129 183.428C189.187 189.161 196.855 193.012 205.16 194.495Z" fill="#455A64"/>
<path id="Vector_102" d="M208.991 202.4C202.64 197.489 193.199 192.888 185.041 192.871C191.88 198.289 200.215 201.606 208.991 202.4Z" fill="#455A64"/>
<path id="Vector_103" d="M213.76 211.928C207.409 207.023 197.974 202.417 189.816 202.399C196.653 207.817 204.987 211.133 213.76 211.928Z" fill="#455A64"/>
<path id="Vector_104" d="M220.417 222.897C214.066 217.986 204.625 213.385 196.467 213.363C203.304 218.785 211.64 222.104 220.417 222.897Z" fill="#455A64"/>
<path id="Vector_105" d="M202.977 189.411C202.977 189.411 202.977 189.452 203.012 189.532L203.141 189.888L203.671 191.236C204.136 192.383 204.848 194.104 205.749 196.158C207.562 200.283 210.252 205.91 213.589 211.957C215.26 214.969 216.938 217.803 218.504 220.344C220.069 222.886 221.558 225.146 222.836 227.016C224.113 228.886 225.19 230.384 225.92 231.405L226.791 232.552L227.021 232.85C227.074 232.919 227.103 232.954 227.109 232.948C227.09 232.908 227.068 232.87 227.044 232.833L226.838 232.518C226.632 232.225 226.361 231.824 226.014 231.319C225.284 230.28 224.248 228.766 223.006 226.884C221.764 225.002 220.299 222.731 218.733 220.189C217.168 217.648 215.514 214.808 213.842 211.796C210.505 205.807 207.815 200.185 205.937 196.055C205.007 194.001 204.271 192.331 203.777 191.173L203.188 189.842L203.03 189.497C203.015 189.467 202.997 189.438 202.977 189.411Z" fill="#263238"/>
<path id="Vector_106" d="M206.391 226.224H238.857V232.323H235.52L232.712 249.717H212.641L209.752 232.323H206.391V226.224Z" fill="#6744F3"/>
<path id="Vector_107" d="M206.391 232.196C206.391 232.116 213.607 232.047 222.506 232.047C231.406 232.047 238.622 232.116 238.622 232.196C238.622 232.276 231.412 232.339 222.506 232.339C213.601 232.339 206.391 232.276 206.391 232.196Z" fill="#263238"/>
</g>
<g id="Character">
<path id="Vector_108" d="M20.4134 249.729H15.1455L13.1914 226.604H19.3952L20.4134 249.729Z" fill="#263238"/>
<path id="Vector_109" d="M66.0879 249.729H71.3558L73.3099 226.604H67.1062L66.0879 249.729Z" fill="#263238"/>
<path id="Vector_110" d="M76.9293 229.535L9.0999 231.084L7.03983 188.385C6.99123 187.394 7.14949 186.404 7.50503 185.475C7.86056 184.546 8.40597 183.696 9.1082 182.979C9.81043 182.261 10.6549 181.69 11.5903 181.3C12.5258 180.909 13.5328 180.708 14.5503 180.709H72.3442C73.3756 180.709 74.3961 180.915 75.3421 181.316C76.2882 181.717 77.1396 182.303 77.8434 183.038C78.5472 183.773 79.0884 184.641 79.4334 185.588C79.7784 186.536 79.9197 187.542 79.8487 188.545L76.9293 229.535Z" fill="#6744F3"/>
<path id="Vector_111" d="M80.4091 188.241H80.2207H79.6616L77.525 188.276H69.6614C63.022 188.276 53.8518 188.218 43.728 188.448C33.5983 188.774 24.4163 188.717 17.7828 188.62C14.4632 188.568 11.7733 188.505 9.91923 188.448L7.78264 188.379H7.22937C7.16684 188.387 7.10354 188.387 7.04102 188.379H7.22937H7.78264H9.91923L17.7828 188.453C24.4222 188.499 33.5924 188.522 43.7221 188.19C53.8518 187.966 63.022 188.069 69.6614 188.115L77.525 188.178L79.6616 188.207H80.2207L80.4091 188.241Z" fill="#263238"/>
<path id="Vector_112" d="M31.7785 181.374C30.2539 181.591 28.7705 182.026 27.3759 182.665C26.0254 183.389 24.7935 184.306 23.7207 185.384C23.9367 184.984 24.2214 184.623 24.5624 184.317C26.127 182.748 28.1798 181.728 30.4012 181.414C30.8543 181.322 31.3206 181.308 31.7785 181.374Z" fill="#263238"/>
<path id="Vector_113" d="M59.6775 103.738L67.9649 118.499L80.0899 111.879L85.9758 113.778C85.9758 113.778 71.1198 129.508 68.7006 130.328C66.2815 131.149 61.7023 131.281 59.0889 128.085C56.7346 125.177 49.7656 109.917 49.7656 109.917L59.6775 103.738Z" fill="#FFBE9D"/>
<path id="Vector_114" d="M93.8105 94.1006C93.7041 93.9734 93.5659 93.8749 93.4093 93.8146C93.2526 93.7543 93.0827 93.7343 92.9158 93.7564L87.1535 94.5137C86.903 94.5502 86.6636 94.6387 86.4513 94.7733C86.239 94.9079 86.059 95.0855 85.9233 95.2939L73.9102 113.279L74.8284 113.778L81.2205 113.583L93.9929 94.3244L93.8105 94.1006Z" fill="#263238"/>
<path id="Vector_115" d="M89.7202 96.435C89.7663 96.5061 89.8342 96.5613 89.9143 96.5929C89.9944 96.6244 90.0826 96.6306 90.1665 96.6106C90.2504 96.5906 90.3258 96.5454 90.3819 96.4815C90.438 96.4175 90.472 96.338 90.4792 96.2541C90.4864 96.1703 90.4663 96.0864 90.4218 96.0142C90.3774 95.9421 90.3108 95.8854 90.2314 95.8522C90.1521 95.8189 90.064 95.8108 89.9796 95.829C89.8953 95.8472 89.8189 95.8907 89.7614 95.9534C89.6935 96.0138 89.6515 96.097 89.6438 96.1863C89.6362 96.2756 89.6635 96.3644 89.7202 96.435Z" fill="white"/>
<path id="Vector_116" d="M93.9918 94.3243C93.6255 94.4243 93.2516 94.4953 92.8735 94.5365L89.8128 95.0012L87.6998 95.2995C87.5206 95.3151 87.3473 95.3696 87.1925 95.459C87.0377 95.5483 86.9053 95.6702 86.8051 95.8159L86.1224 96.8485C85.1747 98.2655 84.1447 99.8201 83.0617 101.438C80.878 104.696 78.8886 107.639 77.4288 109.762L75.6925 112.298C75.4906 112.612 75.2643 112.912 75.0156 113.193C75.1814 112.855 75.3784 112.532 75.6042 112.229L77.2523 109.67C78.659 107.513 80.6131 104.553 82.7968 101.294C83.8916 99.671 84.9334 98.122 85.881 96.7051C86.1224 96.3551 86.3578 96.0109 86.5815 95.6724C86.707 95.4967 86.8706 95.35 87.0609 95.243C87.2511 95.1359 87.4632 95.071 87.6821 95.0529L89.8069 94.789L92.8853 94.4333C93.2506 94.3685 93.6206 94.3321 93.9918 94.3243Z" fill="#455A64"/>
<path id="Vector_117" d="M87.5831 100.743C87.5831 100.743 87.071 100.657 86.7885 102.029C86.506 103.4 85.6113 107.335 85.6113 107.335L82.9156 105.941L79.5371 106.371C79.5371 106.371 78.8013 107.031 79.3428 107.392C79.8843 107.754 82.015 108.121 82.015 108.121L83.5866 110.33L79.0721 108.207C79.0721 108.207 77.5653 108.591 78.0067 109.486C78.4482 110.381 81.4912 113.187 81.4912 113.187L79.231 113.02L76.5588 111.425C76.5588 111.425 75.7347 111.466 76.0408 112.148C76.3469 112.831 79.1486 115.309 79.1486 115.309L82.5389 116.915C82.5389 116.915 84.3929 116.772 84.5695 116.239C84.6894 115.819 84.7643 115.388 84.7932 114.954C84.7932 114.954 85.7761 114.695 85.9704 114.231C86.0785 113.84 86.1006 113.431 86.0351 113.032C86.0351 113.032 87.5772 113.296 87.7715 112.458C87.9063 111.414 87.8626 110.356 87.642 109.326C87.4889 108.677 88.3012 102.682 88.2306 102.505C88.1599 102.327 88.5543 100.348 87.5831 100.743Z" fill="#FFBE9D"/>
<path id="Vector_118" d="M84.6577 116.251C84.3897 116.408 84.0867 116.498 83.7748 116.515C82.2708 116.728 80.7402 116.373 79.4957 115.523C79.0308 115.196 78.8012 114.949 78.8306 114.897C78.8601 114.846 79.9666 115.718 81.6147 116.09C83.2627 116.463 84.64 116.148 84.6577 116.251Z" fill="#EB996E"/>
<path id="Vector_119" d="M83.8567 115.062C83.8038 115.137 83.1975 114.833 82.556 114.317C81.9144 113.8 81.4906 113.29 81.5553 113.227C81.6201 113.164 82.1439 113.554 82.7796 114.058C83.4153 114.563 83.9097 114.982 83.8567 115.062Z" fill="#EB996E"/>
<path id="Vector_120" d="M85.6416 112.211C85.5886 112.286 84.9883 111.988 84.3879 111.443C83.7876 110.898 83.4344 110.347 83.505 110.295C83.5757 110.244 84.0465 110.68 84.6233 111.202C85.2002 111.724 85.6946 112.131 85.6416 112.211Z" fill="#EB996E"/>
<path id="Vector_121" d="M87.5193 109.911C87.4251 109.951 87.0837 109.337 86.5481 108.654C86.0125 107.972 85.4886 107.507 85.5475 107.415C85.6064 107.323 86.2538 107.725 86.8189 108.448C87.2061 108.85 87.4515 109.363 87.5193 109.911Z" fill="#EB996E"/>
<path id="Vector_122" d="M89.8088 216.306C89.8537 216.127 89.8537 215.94 89.8088 215.761C89.7134 215.265 89.5129 214.794 89.2202 214.378C89.1245 214.234 89.0119 214.101 88.8847 213.982C88.8013 213.905 88.6982 213.852 88.5863 213.828C88.4744 213.804 88.3578 213.809 88.249 213.844C88.1849 213.866 88.1268 213.902 88.0788 213.948C88.0309 213.995 87.9945 214.052 87.9724 214.114C87.9311 214.233 87.9311 214.362 87.9724 214.481C88.0527 214.681 88.1512 214.873 88.2667 215.055C88.4844 215.416 88.6669 215.772 88.9494 216.202C89.0318 216.318 89.1449 216.409 89.2766 216.467C89.4083 216.525 89.5536 216.546 89.6969 216.529C89.9601 216.484 90.2082 216.377 90.4209 216.22C90.8107 215.941 91.1662 215.62 91.4804 215.261C91.6317 215.091 91.7732 214.913 91.9042 214.728C92.0473 214.547 92.1532 214.34 92.2161 214.12C92.2513 213.99 92.2387 213.853 92.1807 213.731C92.1226 213.61 92.0227 213.512 91.8983 213.454C91.7818 213.421 91.6584 213.417 91.5399 213.443C91.4215 213.469 91.3118 213.524 91.2214 213.604C90.9522 213.833 90.7148 214.095 90.5151 214.384C90.2189 214.789 89.9831 215.233 89.8147 215.703C89.7372 215.869 89.697 216.049 89.6969 216.231C89.9759 215.628 90.3129 215.051 90.7034 214.51C90.9029 214.252 91.132 214.017 91.3862 213.81C91.5216 213.718 91.6864 213.655 91.7864 213.707C91.8446 213.74 91.8891 213.792 91.9127 213.854C91.9363 213.915 91.9374 213.983 91.9159 214.045C91.8549 214.225 91.7612 214.392 91.6393 214.539C91.5157 214.711 91.3803 214.877 91.239 215.043C90.9344 215.377 90.5951 215.679 90.2267 215.944C90.0544 216.074 89.8524 216.16 89.6381 216.197C89.5503 216.207 89.4612 216.193 89.381 216.157C89.3008 216.12 89.2329 216.063 89.1849 215.99C88.9553 215.663 88.7316 215.256 88.5139 214.917C88.4138 214.739 88.2902 214.567 88.2313 214.424C88.1725 214.28 88.2313 214.166 88.3196 214.12C88.5727 214.022 88.8258 214.303 88.9965 214.539C89.3792 215.072 89.6548 215.672 89.8088 216.306Z" fill="#263238"/>
<path id="Vector_123" d="M75.3464 216.788L68.1656 231.962L56.5762 226.742L64.0042 207.965L75.3464 216.788Z" fill="#FFBE9D"/>
<path id="Vector_124" d="M69.4952 230.946L65.2985 238.748C65.2985 238.748 76.0403 249.573 75.0338 251.994L49.7832 240.194L56.7168 224.549L69.4952 230.946Z" fill="#455A64"/>
<path id="Vector_125" d="M58.0412 234.033C57.7637 233.998 57.4828 234.062 57.2487 234.211C57.0147 234.36 56.8428 234.586 56.7639 234.847C56.7106 235.117 56.7659 235.396 56.9183 235.627C57.0707 235.857 57.3084 236.022 57.5821 236.086C57.8768 236.13 58.1777 236.065 58.4266 235.905C58.6754 235.746 58.8548 235.501 58.9299 235.22C58.955 234.933 58.8646 234.647 58.678 234.424C58.4914 234.2 58.223 234.056 57.9293 234.021" fill="#E0E0E0"/>
<g id="Group_3" opacity="0.6">
<path id="Vector_126" d="M49.8066 240.194L50.8543 238.232L74.6747 250.279C74.6747 250.279 75.5634 251.277 75.0573 252L49.8066 240.194Z" fill="white"/>
</g>
<path id="Vector_127" d="M65.7945 238.811C65.7356 238.931 65.0881 238.696 64.2936 238.811C63.499 238.925 62.9221 239.269 62.8338 239.166C62.7455 239.063 63.2694 238.461 64.2347 238.352C65.2 238.243 65.8769 238.713 65.7945 238.811Z" fill="#263238"/>
<path id="Vector_128" d="M67.9194 241.117C67.9194 241.249 67.2543 241.203 66.5892 241.513C65.924 241.822 65.5356 242.31 65.412 242.247C65.2884 242.183 65.5473 241.467 66.389 241.1C67.2307 240.733 67.9724 241.003 67.9194 241.117Z" fill="#263238"/>
<path id="Vector_129" d="M67.9002 244.909C67.7766 244.909 67.9002 244.203 68.5418 243.693C69.1834 243.182 69.8897 243.188 69.8897 243.314C69.8897 243.44 69.3658 243.624 68.842 244.049C68.3181 244.473 68.0297 244.955 67.9002 244.909Z" fill="#263238"/>
<path id="Vector_130" d="M67.0006 235.81C66.8946 235.896 66.412 235.466 65.6939 235.185C64.9758 234.904 64.3225 234.864 64.3107 234.732C64.2989 234.6 65.0288 234.417 65.8705 234.732C66.7121 235.047 67.1065 235.741 67.0006 235.81Z" fill="#263238"/>
<path id="Vector_131" d="M71.8861 228.921L90.8212 182.745C90.8212 182.745 90.3915 174.863 88.9023 172.379C87.4132 169.895 42.3153 155.375 42.3153 155.375C42.3153 155.375 30.8318 152.679 23.1683 155.375C15.5049 158.071 9.76609 167.422 10.8079 172.585C11.8497 177.749 16.3583 181.575 16.3583 181.575L49.5255 182.539L67.6012 188.964L55.4291 222.966L71.8861 228.921Z" fill="#263238"/>
<path id="Vector_132" d="M88.7241 197.369L89.1538 214.069L76.3872 214.378L74.5508 194.334L88.7241 197.369Z" fill="#FFBE9D"/>
<path id="Vector_133" d="M89.9145 212.577L89.6791 221.383C89.6791 221.383 104.217 226.472 104.394 229.082L76.3945 229.357L75.5293 212.336L89.9145 212.577Z" fill="#455A64"/>
<path id="Vector_134" d="M81.008 220.287C80.7395 220.369 80.5116 220.546 80.3682 220.782C80.2248 221.018 80.176 221.297 80.2311 221.566C80.3059 221.831 80.4818 222.057 80.7226 222.199C80.9635 222.341 81.2509 222.388 81.526 222.329C81.8097 222.241 82.0497 222.052 82.1997 221.801C82.3497 221.55 82.399 221.254 82.3382 220.97C82.2323 220.701 82.0232 220.483 81.755 220.362C81.4869 220.241 81.1809 220.226 80.902 220.321" fill="#E0E0E0"/>
<g id="Group_4" opacity="0.6">
<path id="Vector_135" d="M76.4121 229.358L76.4651 227.143L103.293 227.717C103.293 227.717 104.541 228.233 104.411 229.094L76.4121 229.358Z" fill="white"/>
</g>
<path id="Vector_136" d="M90.1313 221.24C90.1313 221.372 89.4426 221.441 88.7775 221.877C88.1124 222.313 87.7534 222.875 87.6298 222.823C87.5062 222.772 87.7004 221.997 88.5186 221.487C89.3367 220.976 90.1607 221.12 90.1313 221.24Z" fill="#263238"/>
<path id="Vector_137" d="M93.0797 222.392C93.115 222.524 92.5205 222.753 92.0614 223.321C91.6023 223.889 91.4728 224.469 91.3434 224.469C91.2139 224.469 91.1079 223.711 91.6965 223.012C92.2851 222.312 93.0738 222.266 93.0797 222.392Z" fill="#263238"/>
<path id="Vector_138" d="M94.8057 225.806C94.6821 225.835 94.4879 225.169 94.8057 224.435C95.1236 223.701 95.7887 223.408 95.8475 223.517C95.9064 223.626 95.512 224.022 95.2589 224.624C95.0058 225.227 94.9176 225.789 94.8057 225.806Z" fill="#263238"/>
<path id="Vector_139" d="M89.85 218.026C89.797 218.147 89.1672 217.969 88.3961 218.026C87.6251 218.084 87.0247 218.33 86.9482 218.216C86.8717 218.101 87.4485 217.642 88.3608 217.568C89.2731 217.493 89.9206 217.917 89.85 218.026Z" fill="#263238"/>
<path id="Vector_140" d="M81.2674 150.992C81.2674 150.992 88.9191 150.418 89.7667 158.484C90.6142 166.55 91.45 204.309 91.45 204.309L73.6157 205.761L70.8493 167.192L42.3438 155.375C42.3438 155.375 76.1643 149.959 81.2674 150.992Z" fill="#263238"/>
<path id="Vector_141" d="M49.7539 140.08C49.7539 140.08 54.392 152.764 53.5091 154.176C52.6262 155.587 40.6954 161.404 40.6954 161.404L10.8302 172.585C10.8302 172.585 7.76367 167.829 7.76367 160.538C7.76367 153.246 18.1523 140.092 18.1523 140.092L49.7539 140.08Z" fill="#263238"/>
<path id="Vector_142" d="M40.9023 154.749C40.9466 154.779 40.994 154.804 41.0436 154.824L41.4674 155.013L43.1213 155.73L49.331 158.369L70.7616 167.359L70.6616 167.227C70.9323 171.036 71.2502 175.149 71.5268 179.406C72.2567 189.359 72.9277 198.533 73.4574 205.795V205.927H73.5928L86.6124 204.814L90.197 204.487L91.1328 204.396L91.4507 204.35C91.3429 204.341 91.2347 204.341 91.1269 204.35L90.1911 204.407L86.6007 204.665L73.5692 205.663L73.7164 205.784C73.2043 198.527 72.5392 189.348 71.8564 179.395C71.5504 175.138 71.2678 171.025 70.9735 167.215V167.124L70.8852 167.083L49.4075 158.191L43.1625 155.644L41.4909 154.973L41.0554 154.807C41.006 154.784 40.9548 154.765 40.9023 154.749Z" fill="#455A64"/>
<path id="Vector_143" d="M17.1523 155.996C17.44 155.952 17.7222 155.879 17.994 155.778L20.2425 155.066C22.6964 154.258 25.2115 153.639 27.7647 153.213C30.319 152.807 32.9267 152.84 35.4693 153.311C37.4117 153.707 38.53 154.246 38.5536 154.183C38.3122 154.023 38.0512 153.894 37.7766 153.798C37.0473 153.499 36.2931 153.261 35.5223 153.087C32.9529 152.541 30.3006 152.475 27.7058 152.892C25.1321 153.316 22.6041 153.971 20.1542 154.848C19.2124 155.175 18.459 155.456 17.9352 155.657C17.6651 155.749 17.4033 155.862 17.1523 155.996Z" fill="#455A64"/>
<path id="Vector_144" d="M21.373 149.311C22.2434 149.26 23.1161 149.26 23.9864 149.311C24.7928 149.363 25.7522 149.484 26.8116 149.604C27.8711 149.724 29.0424 149.868 30.2549 150.092C32.3295 150.413 34.318 151.133 36.1055 152.209C36.8188 152.692 37.4973 153.223 38.1362 153.798C38.019 153.596 37.8723 153.413 37.7006 153.253C37.2593 152.789 36.7679 152.374 36.235 152.013C34.4482 150.862 32.4292 150.098 30.3138 149.77C29.0895 149.547 27.9123 149.415 26.847 149.306C25.7816 149.197 24.8163 149.105 23.9982 149.082C23.3535 149.054 22.7075 149.081 22.0676 149.162C21.8299 149.179 21.596 149.23 21.373 149.311Z" fill="#455A64"/>
<path id="Vector_145" d="M34.5628 47.4029C31.1313 46.8292 28.0883 48.12 25.2101 50.0074C22.2644 52.0255 20.0195 54.8706 18.7744 58.1636C17.5294 61.4565 17.3434 65.0411 18.2412 68.4397C18.7383 70.1669 19.589 71.7781 20.7422 73.1762C21.8954 74.5743 23.3272 75.7303 24.9511 76.5745C29.4185 78.7831 35.1338 78.0144 39.1362 75.0657C43.1386 72.117 45.4165 67.2464 45.6107 62.3644C45.7961 58.9786 44.8861 55.6215 43.0091 52.7668C42.0576 51.3564 40.818 50.1522 39.3679 49.2294C37.9177 48.3065 36.2881 47.6847 34.5805 47.4029" fill="#263238"/>
<path id="Vector_146" d="M24.7922 58.7905C25.2984 57.5054 25.0982 56.077 25.2984 54.7174C25.7398 51.7285 28.2413 49.3305 31.0666 48.1659C33.727 47.0817 36.9525 47.3169 40.178 48.3266C42.4028 48.9838 44.3894 50.2455 45.905 51.9637C46.8694 53.1295 47.5331 54.5036 47.8403 55.9709C48.1476 57.4382 48.0894 58.9559 47.6708 60.3968L31.9789 58.1709C30.5074 59.3527 29.0006 60.5632 27.2172 61.2229C26.7031 61.4427 26.1395 61.5296 25.5809 61.4753C25.3026 61.443 25.0398 61.3334 24.8237 61.1594C24.6077 60.9855 24.4475 60.7546 24.3625 60.4943C24.2212 59.9149 24.5744 59.347 24.7922 58.7905Z" fill="#263238"/>
<path id="Vector_147" d="M40.514 52.5485L26.8116 55.3825C26.1765 55.4236 25.5799 55.6937 25.1381 56.1402C24.6963 56.5868 24.441 57.1776 24.4219 57.7977L24.5867 86.7054C24.6006 88.6791 25.2788 90.5938 26.5173 92.1554L27.8239 93.7961C30.8081 97.5422 36.8412 97.1636 39.119 92.9757C39.2584 92.7379 39.3652 92.4833 39.4369 92.2185C39.4781 91.9603 39.5487 91.7882 39.5605 91.5702L39.8253 88.7477C39.9548 86.1776 39.9784 83.5846 39.9784 83.5846C39.9784 83.5846 45.5877 82.8962 47.0415 75.8514C47.7537 72.3519 47.8008 66.5635 47.6831 61.8307C47.5594 57.5912 44.8814 52.2674 40.514 52.5485Z" fill="#FFBE9D"/>
<path id="Vector_148" d="M45.5807 67.2803C45.573 67.5167 45.4708 67.7408 45.296 67.9048C45.1212 68.0688 44.8875 68.1596 44.6448 68.158C44.5257 68.1634 44.4066 68.1454 44.2948 68.105C44.1829 68.0646 44.0806 68.0027 43.9938 67.9229C43.907 67.8432 43.8376 67.7472 43.7897 67.6407C43.7417 67.5343 43.7163 67.4195 43.7148 67.3033C43.7239 67.0668 43.8264 66.8429 44.0007 66.6783C44.1751 66.5137 44.408 66.4211 44.6507 66.4198C44.7701 66.4152 44.8893 66.4339 45.0012 66.475C45.1131 66.516 45.2154 66.5785 45.3021 66.6587C45.3888 66.7389 45.4581 66.8353 45.5059 66.942C45.5538 67.0488 45.5792 67.1638 45.5807 67.2803Z" fill="#263238"/>
<path id="Vector_149" d="M46.2635 64.8078C46.1399 64.9225 45.4572 64.3894 44.4507 64.355C43.4442 64.3206 42.6849 64.7792 42.5907 64.6531C42.4966 64.5269 42.6614 64.3894 42.991 64.1772C43.4373 63.898 43.9621 63.7617 44.4919 63.7874C45.0123 63.8047 45.5134 63.9834 45.9222 64.2976C46.2223 64.5441 46.3224 64.762 46.2635 64.8078Z" fill="#263238"/>
<path id="Vector_150" d="M36.5865 67.0576C36.5803 67.295 36.4789 67.5206 36.3038 67.6858C36.1288 67.851 35.8943 67.9427 35.6507 67.9411C35.532 67.9457 35.4136 67.9271 35.3024 67.8863C35.1912 67.8456 35.0896 67.7835 35.0034 67.7039C34.9173 67.6242 34.8484 67.5285 34.8009 67.4224C34.7533 67.3163 34.728 67.2021 34.7266 67.0863C34.7327 66.8499 34.8334 66.6252 35.0071 66.4602C35.1809 66.2951 35.4139 66.2028 35.6565 66.2028C35.7755 66.1982 35.8942 66.2168 36.0057 66.2575C36.1172 66.2982 36.2192 66.3601 36.3058 66.4398C36.3924 66.5194 36.4619 66.615 36.5101 66.7211C36.5583 66.8272 36.5843 66.9416 36.5865 67.0576Z" fill="#263238"/>
<path id="Vector_151" d="M36.7342 64.5732C36.6106 64.6878 35.9278 64.149 34.9214 64.1146C33.9149 64.0802 33.1556 64.5388 33.0614 64.4184C32.9672 64.298 33.132 64.1547 33.4675 63.9369C33.9136 63.6619 34.4351 63.5259 34.9626 63.5471C35.4851 63.5675 35.9877 63.7481 36.3987 64.063C36.693 64.3038 36.7931 64.5216 36.7342 64.5732Z" fill="#263238"/>
<path id="Vector_152" d="M39.7413 72.0079C40.2783 71.873 40.8292 71.798 41.3835 71.7841C41.6425 71.7841 41.8838 71.7268 41.9367 71.5604C41.967 71.3036 41.9178 71.0439 41.7955 70.8146C41.5777 70.2008 41.3482 69.5582 41.1127 68.8813C40.1651 66.1334 39.4941 63.8788 39.6059 63.8444C39.7178 63.81 40.583 66.0072 41.5247 68.7551C41.7484 69.432 41.9662 70.0746 42.1722 70.6941C42.3234 71.0015 42.3568 71.3515 42.2664 71.6809C42.2249 71.767 42.1643 71.8431 42.089 71.9036C42.0136 71.9641 41.9255 72.0075 41.8308 72.0308C41.6876 72.0597 41.5415 72.0731 41.3952 72.071C40.8435 72.1214 40.2873 72.1002 39.7413 72.0079Z" fill="#263238"/>
<path id="Vector_153" d="M39.9771 83.6138C36.5518 83.5375 33.2158 82.5344 30.3418 80.7167C30.3418 80.7167 32.5902 85.7134 39.8947 85.3061L39.9771 83.6138Z" fill="#EB996E"/>
<path id="Vector_154" d="M39.2248 74.3493C39.0432 74.108 38.8013 73.9161 38.5221 73.7916C38.2429 73.6671 37.9358 73.6142 37.6297 73.6379C37.4036 73.6496 37.1824 73.7066 36.9798 73.8053C36.7773 73.904 36.5978 74.0423 36.4525 74.2116C36.3147 74.3678 36.2286 74.561 36.2055 74.7657C36.1824 74.9705 36.2234 75.1773 36.323 75.359C36.4776 75.5397 36.6837 75.6717 36.9153 75.7381C37.1469 75.8045 37.3935 75.8023 37.6238 75.7319C38.1054 75.5875 38.5519 75.3494 38.9364 75.032C39.054 74.9602 39.156 74.8667 39.2366 74.7566C39.2735 74.7022 39.2932 74.6383 39.2932 74.573C39.2932 74.5077 39.2735 74.4439 39.2366 74.3894" fill="#EB996E"/>
<path id="Vector_155" d="M36.7636 72.5763C36.9284 72.5763 36.8872 73.6319 37.7877 74.4236C38.6883 75.2153 39.8537 75.1407 39.8596 75.2898C39.8596 75.3529 39.5888 75.4849 39.1003 75.4792C38.461 75.463 37.8481 75.2273 37.3698 74.8137C36.9152 74.4229 36.6326 73.8763 36.5811 73.2877C36.534 72.823 36.687 72.5649 36.7636 72.5763Z" fill="#263238"/>
<path id="Vector_156" d="M36.6747 61.6694C36.5687 61.9331 35.5681 61.7668 34.385 61.8586C33.202 61.9503 32.2426 62.2312 32.0954 61.9847C32.0307 61.87 32.2014 61.6235 32.5957 61.3827C33.1185 61.0814 33.7079 60.9064 34.3144 60.8725C34.9167 60.8226 35.5224 60.9151 36.0802 61.142C36.5334 61.3254 36.7218 61.5433 36.6747 61.6694Z" fill="#263238"/>
<path id="Vector_157" d="M46.1401 60.523C45.9576 60.7408 45.2748 60.4828 44.4449 60.437C43.615 60.3911 42.9028 60.5287 42.7498 60.2937C42.6791 60.179 42.8027 59.9612 43.1147 59.7605C43.5371 59.5177 44.0269 59.4095 44.5155 59.451C45.0026 59.4765 45.4695 59.6488 45.8517 59.944C46.1342 60.1847 46.2225 60.4198 46.1401 60.523Z" fill="#263238"/>
<path id="Vector_158" d="M22.2796 56.7251C23.704 52.6578 29.9313 47.116 34.2987 47.5004L41.2441 51.7399C40.9913 52.904 40.4202 53.9798 39.5913 54.8534C38.7623 55.727 37.7064 56.3658 36.5353 56.7022C35.2816 57.0464 33.7866 57.121 33.0038 58.1479C32.221 59.1748 32.6389 60.7524 31.9149 61.8309C30.9084 63.3339 28.2538 63.2077 27.4887 64.837C27.1591 65.5483 27.3062 66.4089 26.9589 67.1317C26.4998 68.0725 24.016 69.2256 22.9977 68.8929C21.9795 68.5602 22.0148 66.8678 21.7028 65.9729C21.3013 64.9661 21.2722 63.8545 21.6204 62.8291C22.1266 60.8155 21.6028 58.6642 22.2796 56.7251Z" fill="#263238"/>
<path id="Vector_159" d="M26.0114 69.7716C26.0114 69.2438 25.4228 67.976 24.9225 67.8727C23.504 67.6031 20.926 67.6203 20.7612 71.1542C20.5375 75.9846 25.5582 75.2044 25.5759 75.0667C25.5935 74.929 25.9408 71.5959 26.0114 69.7716Z" fill="#FFBE9D"/>
<path id="Vector_160" d="M24.1737 73.1723C24.1737 73.1723 24.0854 73.2239 23.9324 73.2813C23.7265 73.362 23.4966 73.362 23.2908 73.2813C22.7728 73.069 22.3726 72.2372 22.3844 71.3709C22.394 70.9548 22.4964 70.5456 22.6845 70.1719C22.739 70.0234 22.8295 69.89 22.9484 69.7831C23.0673 69.6762 23.2111 69.599 23.3673 69.5581C23.4671 69.5359 23.5717 69.5491 23.6623 69.5954C23.7529 69.6417 23.8236 69.718 23.8617 69.8105C23.9206 69.9482 23.8617 70.0457 23.9147 70.0515C23.9677 70.0572 24.0206 69.9769 23.9912 69.7761C23.9727 69.6554 23.91 69.5454 23.8146 69.4663C23.7493 69.4118 23.6735 69.3706 23.5916 69.345C23.5098 69.3194 23.4235 69.3099 23.3379 69.3171C23.1328 69.3486 22.9393 69.4305 22.7756 69.5549C22.6119 69.6793 22.4833 69.8423 22.402 70.0285C22.1733 70.4372 22.0501 70.894 22.043 71.3594C22.043 72.3347 22.4962 73.2698 23.2202 73.505C23.3513 73.5479 23.4906 73.5619 23.628 73.5461C23.7654 73.5302 23.8975 73.4848 24.0148 73.4132C24.1266 73.287 24.1737 73.178 24.1737 73.1723Z" fill="#EB996E"/>
<path id="Vector_161" d="M21.2306 55.5032C21.2306 53.9887 19.3118 53.002 17.7992 52.6349C16.2558 52.3764 14.6687 52.672 13.3317 53.4667C12.5371 53.8912 11.7367 54.4993 11.566 55.3656C11.3953 56.2318 12.2428 57.2644 13.0904 56.9547C12.6762 57.0867 12.2972 57.3068 11.9809 57.5991C11.6646 57.8913 11.4188 58.2483 11.2613 58.6444C11.1039 59.0405 11.0386 59.4657 11.0703 59.8894C11.102 60.3131 11.2298 60.7246 11.4445 61.0942C11.6593 61.4639 11.9556 61.7824 12.312 62.0268C12.6685 62.2713 13.0762 62.4355 13.5057 62.5076C13.9352 62.5798 14.3758 62.558 14.7956 62.444C15.2154 62.3299 15.604 62.1264 15.9333 61.8481C15.5033 63.2492 14.5934 64.4641 13.3553 65.2902C14.636 65.4694 15.9425 65.3164 17.1433 64.8468C18.3441 64.3772 19.3967 63.6075 20.1952 62.6152C20.9936 61.623 21.5097 60.4431 21.6915 59.1946C21.8733 57.946 21.7143 56.6729 21.2306 55.5032Z" fill="#263238"/>
<path id="Vector_162" d="M17.7827 63.1562C17.6353 62.6864 17.5716 62.1955 17.5943 61.7048C17.5746 59.3182 18.3789 56.9946 19.8781 55.1075C20.1611 54.7017 20.5158 54.3482 20.9258 54.0634C19.8906 55.3516 19.0648 56.7873 18.4772 58.3201C17.5649 60.9016 17.8945 63.1619 17.7827 63.1562Z" fill="#6744F3"/>
<path id="Vector_163" d="M39.7949 50.2826C40.2481 52.2503 43.3265 54.7688 44.6626 56.3005C47.2288 59.2205 47.735 60.1901 47.7115 66.7243C48.924 64.4697 49.854 62.2553 49.7598 59.7139C49.7026 57.1395 48.681 54.6745 46.8875 52.7839C45.99 51.8614 44.8846 51.1551 43.6587 50.721C42.4328 50.2869 41.12 50.1368 39.8243 50.2826" fill="#263238"/>
<path id="Vector_164" d="M60.8139 104.026C60.8139 104.026 55.4695 95.346 53.9863 93.5905C52.7953 92.2337 51.2986 91.1636 49.613 90.4639C48.9473 90.1838 48.2499 89.9816 47.5353 89.8616L39.8483 88.2036C39.8483 88.2036 39.8483 93.3151 34.3449 93.6307C28.8416 93.9462 24.227 86.4826 24.227 86.4826C24.227 86.4826 15.3452 87.825 13.2262 88.8921C11.1073 89.9591 7.7641 91.3073 5.92769 100.251L4.63867 109.017L19.9421 110.394L21.4077 132.561L28.9946 137.724C28.9946 137.724 50.0368 143.053 51.3611 143.403C52.6855 143.753 53.1269 110.405 53.1269 110.405C53.1269 110.405 58.5773 107.015 60.8139 104.026Z" fill="#263238"/>
<path id="Vector_165" d="M50.7363 100.296C50.8603 100.499 50.961 100.715 51.0365 100.939C51.2072 101.358 51.4309 101.972 51.6781 102.74C52.9648 106.768 53.4951 110.989 53.2437 115.201C53.1966 116.004 53.1319 116.652 53.0613 117.1C53.0457 117.333 53.0042 117.563 52.9377 117.788C52.9095 117.555 52.9095 117.321 52.9377 117.088C52.9671 116.641 53.0024 115.992 53.0201 115.189C53.0774 113.101 52.9791 111.011 52.7258 108.936C52.4603 106.865 52.0394 104.815 51.4662 102.803C51.2484 102.029 51.0542 101.404 50.9129 100.979C50.8296 100.758 50.7704 100.529 50.7363 100.296Z" fill="#455A64"/>
<path id="Vector_166" d="M50.0728 136.604L21.2318 130.488L19.9015 110.409L7.08789 109.262C7.08789 109.262 7.56465 122.984 8.05318 127.046C8.76538 132.915 12.3205 140.923 14.4041 142.535C16.4877 144.147 51.3383 143.413 51.3383 143.413L50.0728 136.604Z" fill="#FFBE9D"/>
<path id="Vector_167" d="M66.4403 140.241C66.3444 140.435 66.1911 140.597 66.0002 140.705C65.8093 140.814 65.5895 140.864 65.369 140.849C65.275 140.843 65.1821 140.826 65.0924 140.798C64.4508 140.597 64.5038 139.329 64.5038 139.329L61.4549 138.847C61.4549 138.847 57.4819 141.343 56.0693 142.995C54.6566 144.647 51.0545 143.31 51.0545 143.31L49.8066 136.966L55.4277 132.015C55.4277 132.015 55.0863 132.307 55.4748 131.384C55.8633 130.46 57.6231 130.81 57.6231 130.81C57.8998 130.351 59.0534 130.19 59.0534 130.19L63.9858 130.764C64.4869 130.821 64.9687 130.986 65.3955 131.248C65.8223 131.51 66.1833 131.862 66.452 132.279L68.5415 135.497C68.5415 135.497 69.6422 137.792 69.4656 138.365C69.387 138.596 69.2221 138.789 69.0039 138.906C68.7856 139.023 68.5301 139.055 68.2884 138.996C68.2884 138.996 68.0471 140.522 67.6351 140.574C67.2143 140.553 66.8012 140.455 66.4167 140.287L66.4403 140.241Z" fill="#FFBE9D"/>
<path id="Vector_168" d="M55.959 135.686C55.959 135.738 56.6182 135.686 57.6718 135.721C59.04 135.785 60.3926 136.032 61.6919 136.455C62.4071 136.689 63.1019 136.979 63.7696 137.321C64.3582 137.648 64.9821 137.895 65.1763 138.337C65.2202 138.428 65.2384 138.53 65.2291 138.63C65.2198 138.731 65.1833 138.828 65.1234 138.91C65.0341 139.046 64.9048 139.152 64.7526 139.214C64.6127 139.262 64.465 139.283 64.317 139.277C64.317 139.277 64.47 139.409 64.7879 139.329C64.9798 139.278 65.148 139.165 65.2646 139.008C65.3494 138.903 65.4048 138.779 65.4255 138.647C65.4461 138.516 65.4312 138.381 65.3823 138.256C65.2569 137.98 65.0526 137.745 64.7938 137.579C64.523 137.413 64.2405 137.235 63.9285 137.069C63.2525 136.707 62.5455 136.404 61.8155 136.162C60.4882 135.725 59.0964 135.502 57.6953 135.503C57.1102 135.474 56.5242 135.536 55.959 135.686Z" fill="#EB996E"/>
<path id="Vector_169" d="M55.6055 138.75C55.6055 138.842 57.6185 138.75 60.0847 138.899C62.5509 139.048 64.5285 139.335 64.5462 139.243C64.1347 139.085 63.703 138.983 63.2631 138.939C62.217 138.766 61.1617 138.651 60.1023 138.595C59.0417 138.538 57.9786 138.538 56.918 138.595C56.4753 138.588 56.0336 138.64 55.6055 138.75Z" fill="#EB996E"/>
<path id="Vector_170" d="M66.411 140.121C66.4544 139.954 66.4762 139.783 66.4758 139.61C66.5058 139.14 66.5058 138.669 66.4758 138.199C66.459 137.871 66.4138 137.545 66.3404 137.224C66.2516 136.848 66.0876 136.494 65.8578 136.18C65.3718 135.454 64.7438 134.828 64.0096 134.338C63.2846 133.849 62.4919 133.463 61.6552 133.191C60.9611 133 60.2454 132.894 59.5245 132.875C58.9359 132.875 58.4297 132.875 58.0883 132.875C57.91 132.864 57.731 132.881 57.5586 132.927C58.2062 133.017 58.8587 133.071 59.5127 133.088C60.2115 133.133 60.9027 133.256 61.5728 133.455C62.3757 133.741 63.1374 134.126 63.8389 134.602C64.5332 135.077 65.1318 135.672 65.6047 136.358C65.9918 136.916 66.2138 137.567 66.2462 138.239C66.3757 139.381 66.3463 140.121 66.411 140.121Z" fill="#EB996E"/>
<path id="Vector_171" d="M59.2949 131.401C59.2949 131.447 60.0307 131.47 61.2078 131.602C62.385 131.734 64.1508 131.849 65.1926 133.375C66.195 134.513 67.0309 135.782 67.6765 137.144C67.8902 137.729 68.0478 138.332 68.1474 138.945C68.1821 138.777 68.1821 138.603 68.1474 138.435C68.1172 137.969 68.0201 137.509 67.8589 137.069C67.2623 135.653 66.4333 134.342 65.4045 133.185C65.1298 132.831 64.8093 132.513 64.451 132.239C64.0977 131.99 63.6978 131.81 63.2738 131.711C62.5907 131.532 61.8905 131.423 61.1843 131.384C60.556 131.317 59.9218 131.323 59.2949 131.401Z" fill="#EB996E"/>
<path id="Vector_172" d="M57.1355 141.974C57.2398 141.909 57.3382 141.837 57.4298 141.756L58.2538 141.108C59.2906 140.322 60.3735 139.596 61.4969 138.933H61.4263L64.4752 139.438L64.3693 139.312C64.3595 139.556 64.3793 139.801 64.4281 140.04C64.4682 140.308 64.5891 140.557 64.7754 140.758C64.8871 140.856 65.0265 140.92 65.1756 140.941C65.3176 140.967 65.4633 140.967 65.6053 140.941C65.9017 140.899 66.1719 140.752 66.3646 140.528C66.4161 140.476 66.4615 140.418 66.5 140.356L66.5294 140.304L66.3528 140.367L66.447 140.402C66.5765 140.454 66.706 140.499 66.8413 140.54C66.9767 140.58 67.1121 140.614 67.2592 140.643C67.3356 140.649 67.4124 140.649 67.4888 140.643C67.5859 140.649 67.683 140.631 67.7713 140.591C67.9052 140.488 68.0071 140.351 68.0656 140.195C68.1279 140.064 68.179 139.928 68.2187 139.788C68.3015 139.511 68.3663 139.23 68.4129 138.945L68.2363 139.065C68.4431 139.107 68.6577 139.094 68.8575 139.028C69.0574 138.961 69.2352 138.843 69.3723 138.687C69.5083 138.525 69.5832 138.322 69.5842 138.113C69.5677 137.919 69.5323 137.727 69.4782 137.539C69.2471 136.808 68.9659 136.094 68.6365 135.399L67.5241 133.678L66.8178 132.594C66.6032 132.215 66.3445 131.86 66.0467 131.539C65.7314 131.229 65.3549 130.985 64.9402 130.821C64.536 130.675 64.1112 130.59 63.6806 130.569L59.0366 130.058H59.0013C58.7219 130.102 58.4478 130.173 58.1831 130.271C57.9007 130.353 57.653 130.522 57.4768 130.753L57.6475 130.701C57.3965 130.588 57.1209 130.537 56.8449 130.552C56.5688 130.567 56.3007 130.647 56.0642 130.787C55.6523 131.079 55.3719 131.515 55.2814 132.003L55.3167 131.94L51.4438 135.336L50.402 136.271C50.2735 136.373 50.1571 136.489 50.0547 136.616C50.1928 136.527 50.3228 136.427 50.4432 136.317L51.5321 135.428L55.4697 132.112H55.4992V132.072C55.5834 131.646 55.8293 131.267 56.1878 131.011C56.3902 130.899 56.617 130.836 56.8494 130.827C57.0819 130.818 57.3131 130.863 57.5239 130.959L57.6299 130.999L57.6946 130.907C57.8482 130.73 58.0534 130.602 58.2832 130.54C58.5293 130.453 58.7836 130.39 59.0425 130.351H59.0013L63.6453 130.885C64.0478 130.908 64.4445 130.989 64.8225 131.125C65.1982 131.272 65.5388 131.493 65.8231 131.774C66.1041 132.081 66.3489 132.418 66.5529 132.778L67.2592 133.868C67.6418 134.441 68.0185 135.015 68.3717 135.589C68.6992 136.265 68.9765 136.962 69.2016 137.677C69.2537 137.843 69.2872 138.014 69.3017 138.187C69.3048 138.336 69.2526 138.481 69.1545 138.595C69.0544 138.709 68.9242 138.795 68.778 138.842C68.6318 138.89 68.475 138.897 68.3246 138.864H68.1657V139.008C68.1208 139.281 68.0599 139.551 67.9832 139.817C67.9333 140.053 67.8241 140.274 67.6654 140.459C67.6244 140.466 67.5827 140.466 67.5418 140.459H67.3534C67.2298 140.459 67.1003 140.402 66.9708 140.367L66.5941 140.241L66.5058 140.207L66.3234 140.27V140.304C66.2949 140.353 66.2613 140.4 66.2233 140.442C66.0738 140.616 65.8648 140.732 65.6347 140.769C65.5241 140.792 65.4098 140.792 65.2992 140.769C65.1953 140.759 65.0969 140.719 65.0167 140.654C64.7584 140.291 64.6415 139.849 64.6871 139.409V139.3H64.5811L61.5205 138.836H61.4852H61.4557C60.336 139.519 59.2643 140.274 58.2479 141.096C57.8947 141.389 57.6299 141.624 57.4533 141.784C57.3407 141.836 57.2341 141.9 57.1355 141.974Z" fill="#EB996E"/>
<path id="Vector_173" d="M103.822 121.786L65.8758 122.09C64.6398 122.09 63.4685 122.664 63.2801 123.851L59.16 150.814H39.5834C39.2955 150.834 39.0261 150.96 38.8294 151.166C38.6328 151.372 38.5234 151.643 38.5234 151.924C38.5234 152.205 38.6328 152.476 38.8294 152.682C39.0261 152.888 39.2955 153.014 39.5834 153.034H102.021L106.289 124.58C106.342 124.234 106.318 123.881 106.219 123.544C106.119 123.208 105.947 122.897 105.712 122.632C105.478 122.367 105.188 122.154 104.862 122.008C104.536 121.862 104.181 121.786 103.822 121.786Z" fill="#E0E0E0"/>
<path id="Vector_174" d="M103.823 121.787C104.021 121.779 104.219 121.798 104.412 121.844C104.916 121.961 105.372 122.227 105.716 122.606C106.059 122.985 106.274 123.458 106.33 123.961C106.345 124.471 106.297 124.982 106.189 125.481L105.642 129.239C104.806 134.89 103.605 143.036 102.11 153.052V153.15H102.01L41.438 153.184H39.8076C39.5113 153.212 39.2131 153.156 38.9483 153.024C38.7457 152.915 38.5768 152.756 38.4591 152.562C38.3414 152.368 38.2793 152.147 38.2793 151.922C38.2793 151.697 38.3414 151.476 38.4591 151.282C38.5768 151.088 38.7457 150.929 38.9483 150.821C39.214 150.691 39.5119 150.638 39.8076 150.666H59.137L58.9898 150.792C60.479 141.137 61.8739 132.13 63.11 124.047C63.1508 123.507 63.4038 123.004 63.8163 122.642C64.2281 122.303 64.7304 122.086 65.2642 122.016C65.7728 121.968 66.2839 121.951 66.7946 121.965H68.2837L73.999 121.93L84.1522 121.867L98.608 121.793H103.811C103.811 121.793 103.699 121.793 103.476 121.793H102.475L98.608 121.844L84.1522 121.999L73.999 122.102L68.2837 122.154H66.7946C66.2976 122.145 65.8005 122.162 65.3055 122.206C64.8165 122.269 64.3567 122.468 63.9811 122.779C63.798 122.94 63.6491 123.134 63.5431 123.35C63.437 123.567 63.3759 123.802 63.3631 124.041C62.127 132.125 60.7497 141.131 59.2429 150.786V150.913H39.8194C39.5775 150.883 39.332 150.923 39.1131 151.027C38.9139 151.139 38.7601 151.314 38.6776 151.523C38.5951 151.731 38.5888 151.962 38.6599 152.175C38.744 152.39 38.9021 152.57 39.1072 152.685C39.3283 152.79 39.5751 152.831 39.8194 152.806H41.4498L102.022 152.84L101.904 152.938C103.429 142.927 104.665 134.786 105.524 129.136C105.742 127.73 105.936 126.474 106.113 125.39C106.222 124.898 106.275 124.395 106.271 123.892C106.222 123.401 106.019 122.937 105.689 122.562C105.36 122.187 104.92 121.921 104.429 121.798C104.227 121.784 104.025 121.78 103.823 121.787Z" fill="#263238"/>
<path id="Vector_175" d="M83.2392 139.387C84.5525 139.387 85.6172 138.349 85.6172 137.069C85.6172 135.789 84.5525 134.751 83.2392 134.751C81.926 134.751 80.8613 135.789 80.8613 137.069C80.8613 138.349 81.926 139.387 83.2392 139.387Z" fill="white"/>
<path id="Vector_176" d="M60.6675 152.783C60.7204 152.783 61.927 145.927 63.3632 137.454C64.7994 128.981 65.9236 122.096 65.8706 122.091C65.8176 122.085 64.6051 128.946 63.169 137.419C61.7328 145.893 60.6204 152.777 60.6675 152.783Z" fill="#263238"/>
</g>
</g>
</svg>
